<?xml version="1.0" encoding="UTF-8"?><svg id="Layer_21" xmlns="http://www.w3.org/2000/svg" viewBox="0 0 400.19 205.93"><defs><style>.cls-1{fill:#0067ef;}.cls-2{fill:#fff79a;}</style></defs><path class="cls-2" d="m35.31,69.08c.09-1.69.83-1.85,1.93-1.88,2.16-.06,4.36-.31,6.62-.48.2-1.14-1.2-2.38,1.45-2.57l-.28-.58c-2.71-.77-5.42-1.54-8.13-2.31.05-.25.09-.5.14-.75,2.08-.77,4.15-1.55,6.23-2.31,1.41-.52,2.83-1.16,4.24-1.48,1.28-.29,2.57-.29,3.83-.28,3.52,0,7.03.09,10.55.11.35,0,.77-.27,1.26-.45-.52-.41-.95-.74-1.54-1.2,2.39.17,4.47.54,6.64.4,1.96-.13,3.88,1.51,6.61-1.07-2.27-.64-4.07-1.04-5.74-1.69-.61-.24-.86-1.12-1.36-1.61-.6-.59-1.3-1.08-1.87-2.09,2.6.3,5.24.5,7.8.94,2.57.44,5.01,1.22,7.59,1.63.55.09,1.72-.64,2.12-1.26.92-1.43,1.7-1.44,2.88-1.17,2.91.66,5.9,1.12,9.08,1.21-.21-.16-.39-.42-.65-.47-5.84-1.15-11.69-2.3-17.56-3.38-1.82-.33-3.77-.31-5.53-.77-.8-.21-1.27-1.2-1.89-1.84.85-.46,1.68-.96,2.54-1.37.36-.17.78-.15,1.15-.21.32,2.02,1.9,2.55,3.84,1.14-.93-.27-1.74-.49-2.81-.8,1.25-1.03,2.22-1.63,2.94-.63,1.36,1.87,2.61,1.76,4.32-.45,1.53-.11,3.01-.21,4.49-.31.1-.19.2-.38.29-.57-1.05-.39-2.09-.78-3.14-1.16-.55-.2-1.26-.24-1.62-.63-.27-.3-.25-1.1-.04-1.6.1-.25.98-.51,1.39-.45,1.03.17,2,.53,3.03.82,1.41-3.33,3.57-1.2,5.59-2.51-4.07-1.16-7.92-2.25-11.77-3.34.07-.2.15-.4.22-.61,2.73.3,5.46.59,8.19.89.06-.17.12-.34.18-.51-6.49-2-13.7-2.13-20.39-3.95,1.3-.23,2.69-.77,3.87-.64,7.14.78,14.27,1.59,21.32,2.65,5.79.87,11.44,2.16,17.21,3.12,3.69.62,7.46.98,11.2,1.44,4.47.55,8.92,1.18,13.43,1.58,4.21.38,8.51.42,12.74.76,5.29.43,10.54,1,15.81,1.52.38.04.82.05,1.06.28.63.59,1.37,1.18,1.62,2,.09.32-1.04,1.29-1.65,2,1.27.36,2.61.87,4.04,1.13,6.44,1.13,12.93,2.14,19.37,3.28,4.59.81,9.19,1.61,13.67,2.7,3.46.84,6.67,2.28,10.1,3.2,11.63,3.11,23.23,6.3,35,9.07,8.91,2.1,17.06,5.65,25.45,8.77,6.66,2.48,13.51,4.59,20.28,6.85,5.5,1.84,11.1,3.47,16.48,5.53,9.33,3.58,18.53,7.41,27.76,11.18,1.87.76,3.64,1.7,5.31,2.84-5.73-.41-10.3-3.28-15.47-4.87-5.23-1.61-10.38-3.4-15.8-4.69,5.74,2.33,11.47,4.66,17.21,6.99-.07.15-.15.3-.22.45-2.37-.89-4.71-1.84-7.12-2.63-1.06-.35-2.32-.28-3.4-.61-5.94-1.8-11.92-3.54-17.76-5.54-6.8-2.34-13.42-5.02-20.23-7.35-1.94-.66-4.22-.6-6.5-.6,1.42.69,2.78,1.49,4.26,2.04,7.51,2.8,15.11,5.42,22.56,8.33,3.7,1.45,7.12,3.43,10.72,5.07,2.68,1.22,5.43,2.34,8.19,3.41,5.42,2.1,10.86,4.17,16.32,6.2,4.67,1.73,9.38,3.37,14.07,5.06.74.27,1.48.53,2.09,1.23-.73-.08-1.5-.06-2.17-.26-5.75-1.74-11.45-3.56-17.22-5.25-.98-.29-2.2-.03-3.31-.02l-.2.55c.38.18.75.39,1.15.53,2.7.95,5.46,1.78,8.1,2.84,3.29,1.32,6.49,2.81,9.7,4.26.8.36,1.52.85,2.69,1.52-1.38.33-2.21.53-2.88.69,7.73,3.85,15.5,7.73,23.37,11.65-2.06,2.23-.14,2.54.75,3.25,1.96,1.55,4,3,5.76,4.96-2.55-.41-5.1-.81-7.65-1.22-.1.21-.19.41-.29.62.85.63,1.7,1.25,2.9,2.14-1.6.07-2.72.12-3.83.17-.06.16-.13.33-.19.49,1.04.48,2.07.96,3.54,1.64-1.34.33-2.14.53-3.44.86,2.15,1.12,3.92,2.05,5.68,2.97-.09.23-.17.47-.26.7-2-.25-3.99-.51-6.22-.79.95,2.91,3.8,3.29,5.72,4.76-.11.2-.22.39-.33.59-3.54-1.27-7.08-2.55-10.61-3.82-.16.3-.32.59-.48.89,3.42,3,8.13,4.04,12.69,6.5-2.36.85-4.2,1.52-3.52,4.1-1.04-.29-1.8-.48-2.53-.72-2.27-.74-2.42-.66-3.35,1.95-1.73.2-3.43.41-5.14.61-.09.23-.17.46-.26.69,2.07,1.45,4.14,2.9,6.22,4.36-.12.21-.24.43-.36.64-4.99,1.75-7.78-2.85-12.47-2.13.63.26,1.35.4,1.87.79.75.56,2.2.67,1.31,2.52-.13.26.38.7.54,1.1.25.63.45,1.29.68,1.94-.87.35-1.85,1.06-2.59.98-2.63-.27-5.16-.83-7.75-1.23-.87-.14-1.79-.14-2.69-.21-.13.24-.26.48-.39.72,1.13.86,2.29,1.68,3.36,2.61.44.38.67,1.02.99,1.54-.77.44-1.57,1.16-2.31,1.27-1.34.19-2.65.02-3.92,0-.14.35-.2.43-.19.48.2.9.4,1.8.6,2.7-1.56.66-2.76,2.38-4.64,2.31-1.42-.05-2.56-.33-3.81-.88-1.7-.76-3.9-.63-6.15-.5,1.86,1.57,3.72,3.14,5.66,4.78-.5,1.5-1.33,2.09-2.73,1.3-1.61-.92-3.28-1.73-4.96-2.54-.38-.19-.88-.2-1.62.18.81.71,1.62,1.42,2.53,2.22-3.99,1.28-5.64-2.45-8.77-2.75-.17.28-.34.57-.51.85,2.97,1.74,5.95,3.49,9.28,5.44-4.39.74-8.23,1.82-11.77.29-2.61-1.13-5.79-1.2-8.61-1.98-1.82-.5-3.46-1.42-5.18-2.16-3.43-1.47-6.81-3.07-10.31-4.41-11.85-4.52-23.7-9.03-35.64-13.36-3.82-1.38-8-2.03-11.89-3.28-2.56-.82-4.83-2.24-7.33-3.18-4.13-1.56-8.27-3.14-12.54-4.4-8.88-2.63-17.84-5.06-26.77-7.57-1.49-.42-2.9-.78-4.63.81-.53.49-1.72.46-2.44.27-3.55-.95-6.95-2.25-10.57-3.04-7.25-1.57-14.61-2.86-21.9-4.33-3.96-.8-7.87-1.73-11.81-2.6-.64-.14-1.28-.25-2.43-.47.58.72.83,1.02,1.16,1.43-.29.07-.48.17-.62.15-5.99-1.12-11.96-2.3-17.97-3.37-4.47-.8-8.86-2.31-13.52-1.96-5.22.39-9.7-1.08-14.62-1.36-3.43-.19-4.02-2.07-2.2-5.68.25-.5.05-1.16.05-1.81,2.52-1.75,5.02-1.29,7.57-1.27,1.79.02,3.62-.17,5.44-.3.3-.02.76-.11.93-.33,1.17-1.5,2.28-1.05,3.47-.89,1.39.19,2.82.24,4.24.34.06-.18.13-.36.19-.55-.53-.19-1.05-.43-1.6-.58-3.03-.82-6.13-1.48-9.09-2.45-2.69-.88-5.08-2.49-7.87-3.06-6.19-1.27-12.47-2.35-18.86-3-4.97-.5-10.12-.79-15.29-.1-3.3.44-5.91-.8-9.03-.5-.58.06-1.03-.59-1.62-.74-1.83-.47-3.66-.93-5.55-1.23-.47-.07-1.16.51-2.12.96,2.17.32,3.82.56,5.48.8-.14.34-.29.67-.43,1.01-6.15-.87-11.47-3.3-16.57-6.95,1.06-.28,1.74-.46,2.8-.73-7.75-5.58-17.73-5.72-26.56-8.38,3.21-2.11,5.66.22,8.87-.87.32-.53.81-1.34,1.46-2.4-1.32-.64-2.57-1.24-3.83-1.85.07-.23.13-.45.2-.68,1.51,0,3.08-.17,4.52.03,2.54.35,4.95.07,7.56-2.76-1.9-.54-3.78-1.12-5.69-1.6-1.16-.29-2.67-.04-2.02-2.25.15-.5-.42-1.07-.36-2.23,3.01.46,6.01.91,9.27,1.41-.18-.75-.31-1.31-.52-2.15,1.06-.42,2.09-.83,3.22-1.27-.09-1.93-1.47-1.75-2.74-1.75-1.95,0-3.89-.05-5.83-.08l.19-.82c1.7.02,3.39.05,5.19.07-1.56-3.17-5.46-1.23-7.81-2.83.2-.27.46-.63.69-.95-1.06-1.33-2.11-2.65-3.4-4.28.68-.27,1.25-.67,1.7-.64,2.91.2,5.8.48,8.68.77,1.75.17,3.49.4,5.5.63Zm55.81-24.22c.11-.47.21-.93.32-1.4-3.25.09-6.49.17-9.74.26-.06.28-.12.56-.19.84,3.2.1,6.4.2,9.61.31Zm193.92,23.01c-.2-.18-.36-.44-.61-.54-2.14-.88-4.27-1.79-6.46-2.58-6.91-2.5-13.81-5-20.77-7.4-5.87-2.03-11.73-4.08-17.73-5.82-4.91-1.43-10.01-2.44-15.05-3.59-.44-.1-1.03.17-1.55.27-.1.31-.19.62-.29.94,20.71,6.44,41.43,12.88,62.14,19.32.11-.2.21-.39.32-.59Zm-78.43-21.56c1.86-1.71.22-1.9-.52-2.06-5.91-1.29-11.85-2.5-17.81-3.67-3.59-.7-7.19-1.39-10.86-1.84-1.7-.21-3.58.14-5.39.33-.25.03-.58.66-1.18,1.38,12.65,1.23,24.64,3.25,36.08,7.65-.19-.99-.47-1.67-.33-1.8Zm12.95,1.89c.2.07.71-.15.84-.37.14-.22.12-.71-.03-.89-.81-1-4.15-.84-6.07.68,1.46-.14,2.39-.23,3.45-.34.57.3,1.16.67,1.81.91Zm118.8,49.83c-.09.17-.18.35-.27.52,2.38,1.6,5.4,1.95,8.41,2.33l-8.14-2.84Zm-45.32-27.32c-2.12-.6-4.25-1.21-6.37-1.81-.08.18-.16.35-.24.53,2.13.61,4.26,1.21,6.39,1.82.07-.18.14-.36.22-.53ZM36.74,110.94c-1.19-.54-2.38-1.07-3.56-1.61.3,2.05,1.98,1.78,3.25,2.2.1-.2.21-.39.31-.59Z"/><g><path class="cls-1" d="m90.14,69.02c-.63.27-1.3.31-2,.12-.7-.19-1.25-.56-1.67-1.11-.41-.55-.52-1.2-.32-1.92l4.13-15.32c.2-.73.61-1.23,1.25-1.5.63-.27,1.3-.31,2-.12s1.25.56,1.67,1.11c.41.55.52,1.2.32,1.93l-4.13,15.32c-.2.73-.61,1.23-1.25,1.5Zm8.57,2.31c-.63.27-1.3.31-2,.12-.7-.19-1.25-.56-1.67-1.11-.41-.55-.52-1.19-.32-1.92l4.13-15.32c.2-.73.61-1.23,1.25-1.5s1.3-.31,2-.12c.7.19,1.25.56,1.67,1.11.41.55.52,1.2.32,1.92l-4.13,15.32c-.2.73-.61,1.23-1.25,1.5Z"/><path class="cls-1" d="m119.69,76.81c-.64.29-1.31.34-2,.15-.7-.19-1.25-.57-1.66-1.14-.41-.57-.51-1.23-.3-2l1.58-5.85c-.24,0-.71-.03-1.4-.1-.7-.07-1.63-.19-2.81-.38-1.64-.24-2.59.14-2.86,1.12-.24.89.01,1.33.77,1.33.37,0,.69.03.94.1.7.19,1.2.58,1.52,1.18s.38,1.24.19,1.94c-.33,1.21-1.2,1.8-2.63,1.79-.51,0-1.08-.09-1.72-.26-1.59-.43-2.84-1.26-3.77-2.5-1.03-1.47-1.29-3.17-.77-5.11.94-3.49,3.7-4.99,8.26-4.51.56.08,1.1.16,1.62.23.52.07,1.05.15,1.57.22,1.4.11,2.18-.13,2.33-.7.1-.38-.08-.77-.53-1.16s-1.03-.69-1.73-.88c-1.46-.39-2.47-.26-3.02.41-.83,1.04-1.87,1.38-3.14,1.04-.38-.1-.7-.26-.95-.46-.94-.66-1.28-1.5-1.01-2.52.45-1.65,1.79-2.72,4.03-3.2,1.91-.4,3.73-.37,5.44.09,1.14.31,2.16.75,3.07,1.31.9.57,1.63,1.23,2.19,2,.56.76.93,1.6,1.11,2.52s.13,1.88-.14,2.9l-2.93,10.85c-.21.76-.63,1.29-1.27,1.57Z"/><path class="cls-1" d="m132.08,75.64c-.25.92-.79,1.57-1.63,1.96-.84.39-1.76.44-2.78.17-1.02-.27-1.79-.79-2.32-1.54-.53-.75-.67-1.59-.42-2.51.25-.92.79-1.57,1.63-1.96.84-.39,1.76-.44,2.78-.17,1.01.27,1.79.79,2.31,1.54.53.75.67,1.59.42,2.51Zm2.7-9.99c-.25.92-.79,1.57-1.63,1.96-.84.39-1.76.44-2.78.17-1.02-.27-1.79-.79-2.32-1.54-.53-.75-.67-1.59-.42-2.51s.79-1.57,1.63-1.96c.84-.39,1.76-.44,2.78-.17,1.01.27,1.79.79,2.31,1.54.53.75.67,1.59.42,2.51Z"/><path class="cls-1" d="m148.94,83.35c-1.92.95-4.1,1.09-6.55.43s-4.26-1.88-5.44-3.66c-1.19-1.78-1.46-3.85-.83-6.2l2.67-9.9c.2-.73.61-1.24,1.23-1.53.62-.29,1.3-.34,2.03-.14s1.29.58,1.68,1.14c.39.57.49,1.21.29,1.94l-2.76,10.23c-.22.83-.13,1.57.29,2.25.42.67,1.1,1.14,2.05,1.39.95.26,1.78.2,2.47-.17.7-.37,1.16-.97,1.38-1.8l4.71-17.46c.2-.73.61-1.24,1.23-1.53.62-.29,1.3-.34,2.03-.14.73.2,1.29.58,1.68,1.14s.49,1.21.29,1.94l-4.62,17.13c-.63,2.35-1.91,3.99-3.83,4.94Z"/><path class="cls-1" d="m160.07,62.72c-.39,1.46-1.35,1.98-2.88,1.57l-8.42-2.27c-1.49-.4-2.04-1.33-1.65-2.79l.18-.67-.43-.12c-1.49-.4-2.04-1.33-1.65-2.79.39-1.46,1.34-1.99,2.83-1.58l2.71.73c1.74.47,2.41,1.47,2,2.99l-.15.57,5.76,1.55c.73.2,1.24.56,1.51,1.1.28.54.34,1.1.18,1.71Z"/><path class="cls-1" d="m177.12,82.43c-.78,2.89-2.33,5.04-4.65,6.45-2.31,1.38-4.93,1.68-7.85.89-2.41-.65-4.39-2.03-5.92-4.15-1.61-2.24-2.09-4.56-1.44-6.97.28-1.05.83-1.78,1.64-2.19.81-.41,1.72-.48,2.74-.21l4.04,1.09c.79.21,1.35.62,1.66,1.21.32.6.38,1.23.21,1.89-.18.67-.56,1.18-1.13,1.53-.57.36-1.25.43-2.05.21l-1.57-.42c.47,1.79,1.5,2.9,3.08,3.33,1.37.37,2.61.11,3.73-.78,1-.82,1.7-1.94,2.08-3.37.2-.73.28-1.44.24-2.13-.04-.69-.18-1.33-.42-1.93s-.6-1.11-1.07-1.54c-.46-.43-1.03-.74-1.69-.92-.79-.21-1.57-.22-2.34-.02-.77.2-1.3.47-1.59.79-.73.79-1.71,1.02-2.94.69-1.78-.48-2.46-1.46-2.06-2.96.45-1.68,1.94-2.76,4.45-3.24,2.15-.41,4.1-.37,5.84.1,2.82.76,4.88,2.34,6.18,4.73,1.33,2.37,1.61,5,.83,7.88Z"/><path class="cls-1" d="m196.02,87.48c-.83,3.08-2.25,5.28-4.26,6.61-2.01,1.33-4.36,1.63-7.06.9l-1.09-.3c-2.28-.62-3.45-1.87-3.48-3.75l-.16-9.64c0-.27.03-.47.06-.6.19-.7.64-1.18,1.36-1.45.72-.26,1.44-.3,2.17-.1,1.27.34,1.91,1.16,1.94,2.46l.04,8.94.62.17c.98.27,1.89-.03,2.71-.88.83-.85,1.44-2.04,1.85-3.56.38-1.43.42-2.71.09-3.85-.32-1.14-.96-1.84-1.91-2.1-.13-.03-.3-.06-.52-.06-.22,0-.45,0-.69.02-.24.02-.47.03-.67.02-.2,0-.35-.02-.45-.04-.95-.26-1.58-.72-1.89-1.4-.31-.68-.32-1.39-.01-2.12.28-.67.9-1.17,1.86-1.49.96-.32,2.1-.3,3.43.06,2.51.68,4.33,2,5.46,3.97,1.27,2.22,1.47,4.94.6,8.18Z"/><path class="cls-1" d="m212.8,101.93c-.62.29-1.3.34-2.03.14-.73-.2-1.29-.58-1.68-1.14-.39-.57-.49-1.21-.29-1.94l2.65-9.8c.26-.98.17-1.86-.29-2.63-.46-.77-1.14-1.28-2.06-1.53-1.56-.42-2.64-.24-3.26.55-.12.21-.04.57.27,1.09.3.52.42.9.36,1.12-.04.16-.34.44-.89.83-.52.41-.84.83-.96,1.27l-2,7.42c-.2.73-.61,1.24-1.23,1.53-.62.29-1.3.34-2.03.14-.73-.2-1.29-.58-1.68-1.14-.39-.57-.49-1.21-.29-1.94l2.07-7.66c.12-.44.44-.82.97-1.12.32-.19.53-.32.62-.39.09-.08.17-.12.24-.14l-.14-.24c-.05-.08-.1-.17-.16-.27-.06-.1-.15-.24-.27-.41-.35-.6-.44-1.07-.28-1.4.39-.81.93-1.52,1.62-2.12.69-.6,1.47-1.05,2.33-1.36.87-.31,1.81-.48,2.82-.52s2.04.09,3.09.37c2.54.68,4.38,1.88,5.52,3.58,1.25,1.8,1.52,4,.82,6.6l-2.58,9.57c-.2.73-.61,1.24-1.23,1.53Z"/><path class="cls-1" d="m227.62,81.04c-.38,1.4-1.26,1.91-2.66,1.53l-11.14-3c-1.01-.27-1.79-.82-2.31-1.64-.53-.82-.67-1.68-.43-2.57.25-.92.82-1.6,1.7-2.04.89-.44,1.82-.53,2.8-.27,1.75.47,2.69,1.56,2.85,3.27l7.66,2.07c1.4.38,1.91,1.26,1.53,2.66Z"/><path class="cls-1" d="m238.1,105.97c-.23.86-.81,1.5-1.75,1.93-.93.43-1.92.5-2.97.22-1.21-.33-2.1-.99-2.68-2-1.5.51-3.08.55-4.72.1-2.12-.57-3.68-1.64-4.65-3.2-1.13-1.74-1.35-3.9-.64-6.5l2.63-9.75c.2-.73.61-1.23,1.25-1.5.63-.27,1.3-.31,2-.12.7.19,1.25.56,1.67,1.11.41.55.52,1.2.32,1.93l-2.57,9.52c-.62,2.32-.02,3.72,1.82,4.22.86.23,1.72.16,2.59-.22.87-.38,1.43-1.03,1.67-1.95l2.67-9.9c.2-.73.61-1.23,1.25-1.5.64-.27,1.3-.31,2-.12.7.19,1.25.56,1.67,1.11s.52,1.2.32,1.92l-3.07,11.37c1.13.99,1.53,2.1,1.19,3.33Z"/><path class="cls-1" d="m255.43,113.43c-.62.29-1.3.34-2.03.14-.73-.2-1.29-.58-1.68-1.14-.39-.56-.49-1.21-.29-1.94l2.65-9.8c.26-.98.17-1.86-.29-2.63-.46-.77-1.14-1.28-2.06-1.53-1.55-.42-2.64-.24-3.26.55-.12.21-.04.57.27,1.09.3.52.42.9.36,1.12-.04.16-.34.44-.89.83-.52.41-.84.83-.96,1.27l-2,7.42c-.2.73-.61,1.24-1.23,1.53-.62.29-1.3.34-2.03.14-.73-.2-1.29-.58-1.68-1.14-.39-.57-.49-1.21-.29-1.94l2.07-7.66c.12-.44.44-.82.96-1.12.32-.19.53-.32.62-.4s.17-.12.24-.14l-.14-.24c-.05-.08-.1-.17-.16-.27-.06-.1-.15-.24-.27-.41-.35-.6-.44-1.07-.28-1.4.39-.81.93-1.52,1.62-2.12.69-.6,1.47-1.05,2.33-1.36s1.81-.48,2.82-.52,2.04.09,3.09.38c2.54.68,4.38,1.88,5.52,3.58,1.25,1.8,1.52,4,.82,6.6l-2.58,9.57c-.2.73-.61,1.24-1.23,1.53Z"/><path class="cls-1" d="m270.55,117.56c-.62.29-1.28.34-1.98.15-.7-.19-1.26-.57-1.68-1.14-.42-.57-.53-1.24-.33-2l2.77-10.28c.39-1.46-.11-2.38-1.5-2.75-.6-.16-1.03-.21-1.29-.14-.64.1-1.18.09-1.62-.03-.7-.19-1.22-.58-1.57-1.19-.35-.61-.43-1.26-.24-1.95.25-.92.96-1.51,2.14-1.77,1.18-.26,2.48-.2,3.91.19,2.19.59,3.79,1.69,4.8,3.31,1.01,1.62,1.23,3.47.67,5.57l-2.83,10.47c-.21.76-.62,1.29-1.24,1.58Z"/><path class="cls-1" d="m292.44,117.06c-.27,1.02-.73,1.88-1.36,2.59-.64.71-1.4,1.27-2.29,1.66-.89.39-1.9.6-3.03.64s-2.33-.12-3.6-.46c-2.19-.59-3.91-1.65-5.17-3.18-1.19-1.51-1.64-3.01-1.34-4.5.15-.81.56-1.39,1.23-1.73.67-.35,1.39-.42,2.15-.21,1.55.42,2.21,1.4,1.97,2.93-.21.9.59,1.59,2.4,2.08.82.22,1.59.25,2.3.08.71-.17,1.14-.55,1.31-1.15.22-.82-.78-1.78-3.01-2.85-2.09-.97-3.57-1.9-4.46-2.79-1.41-1.33-1.88-2.89-1.4-4.67.5-1.87,1.75-3.15,3.74-3.84,1.77-.64,3.63-.71,5.56-.18,3.74,1.01,5.95,2.87,6.62,5.56.13.41.13.83.01,1.28-.19.7-.63,1.21-1.33,1.53-.7.32-1.4.39-2.1.2-.95-.26-1.58-.94-1.9-2.04-.25-.85-1.07-1.46-2.46-1.84-1.52-.41-2.38-.27-2.57.43-.15.57.77,1.31,2.77,2.23,2.2.93,3.77,1.92,4.72,2.96,1.38,1.43,1.79,3.19,1.23,5.28Z"/><path class="cls-1" d="m299.05,125.38c-.63.27-1.3.31-2,.12-.7-.19-1.25-.56-1.67-1.11-.41-.55-.52-1.19-.32-1.92l4.13-15.32c.2-.73.61-1.23,1.25-1.5.63-.27,1.3-.31,2-.12.7.19,1.25.56,1.67,1.11s.52,1.2.32,1.92l-4.13,15.32c-.2.73-.61,1.23-1.25,1.5Z"/><path class="cls-1" d="m320.29,130.93c-.62.29-1.3.34-2.03.14-.73-.2-1.29-.58-1.68-1.14-.39-.57-.49-1.21-.29-1.94l2.64-9.8c.27-.98.17-1.86-.29-2.63-.46-.77-1.14-1.28-2.06-1.53-1.55-.42-2.64-.24-3.26.55-.12.21-.04.57.27,1.09.3.52.42.9.36,1.12-.04.16-.34.44-.89.83-.52.4-.84.83-.96,1.27l-2,7.42c-.2.73-.61,1.24-1.23,1.53-.62.29-1.3.34-2.03.14-.73-.2-1.29-.58-1.68-1.14-.39-.57-.49-1.21-.29-1.94l2.07-7.66c.12-.44.44-.82.97-1.12.32-.19.53-.32.62-.4.09-.08.17-.12.24-.14l-.14-.24c-.05-.08-.1-.17-.16-.27-.06-.1-.15-.24-.27-.41-.35-.6-.44-1.07-.28-1.4.39-.81.93-1.52,1.62-2.12.69-.6,1.47-1.05,2.33-1.36s1.81-.48,2.82-.52c1.01-.03,2.04.09,3.09.37,2.54.69,4.38,1.88,5.52,3.58,1.25,1.8,1.53,4,.82,6.6l-2.58,9.57c-.2.73-.61,1.24-1.23,1.53Z"/><path class="cls-1" d="m328.51,108.26c-.38,1.4-1.26,1.91-2.66,1.53l-11.66-3.15c-1.4-.38-1.91-1.26-1.53-2.66.38-1.4,1.26-1.91,2.66-1.53l11.66,3.15c1.4.38,1.91,1.26,1.53,2.66Z"/><path class="cls-1" d="m342.18,136.76c-.63.27-1.3.31-2,.12-.7-.19-1.25-.56-1.67-1.11-.41-.55-.52-1.19-.32-1.92l2.77-10.28c.22-.83.12-1.57-.29-2.22-.42-.66-1.1-1.11-2.05-1.37-.95-.26-1.78-.21-2.47.15-.69.36-1.15.95-1.37,1.77l-2.05,7.62c1.74.47,2.41,1.48,1.99,3.04-.18.67-.56,1.18-1.15,1.53-.59.35-1.29.42-2.12.19l-2-.54c-2.16-.58-2.96-1.89-2.41-3.92l2.43-9c.31-1.14.79-2.12,1.45-2.93.66-.81,1.44-1.44,2.35-1.89.91-.45,1.91-.72,3.02-.79,1.11-.07,2.28.05,3.52.39s2.32.81,3.24,1.43c.92.62,1.66,1.36,2.21,2.21.55.85.91,1.79,1.08,2.82.16,1.03.09,2.12-.22,3.26l-2.68,9.95c-.2.73-.61,1.23-1.25,1.5Z"/><path class="cls-1" d="m127.88,118.47c-1.69.84-3.58.97-5.67.41-1.59-.43-2.92-1.25-3.98-2.45-1.01.58-2.11.71-3.32.38-1.05-.28-1.86-.84-2.46-1.68-.59-.84-.77-1.69-.54-2.54.33-1.24,1.24-2,2.71-2.28l3.07-11.37c.2-.73.61-1.23,1.25-1.5s1.3-.31,2-.12c.7.19,1.25.56,1.67,1.11.41.55.52,1.2.32,1.92l-2.67,9.9c-.24.89-.06,1.75.53,2.59.55.73,1.24,1.2,2.07,1.42,1.84.5,3.07-.41,3.7-2.73l2.57-9.52c.2-.73.61-1.23,1.25-1.5.64-.27,1.3-.31,2-.12.7.19,1.25.56,1.67,1.11.41.55.52,1.2.32,1.93l-2.63,9.75c-.7,2.6-1.98,4.37-3.83,5.3Z"/><path class="cls-1" d="m141.42,118.8c-.25.92-.79,1.57-1.63,1.96-.84.39-1.76.44-2.78.17-1.02-.27-1.79-.79-2.32-1.54-.53-.76-.67-1.59-.42-2.51.25-.92.79-1.57,1.63-1.96.84-.39,1.76-.44,2.78-.17,1.01.27,1.79.79,2.31,1.54.53.75.67,1.59.42,2.51Zm2.7-9.99c-.25.92-.79,1.57-1.63,1.96-.84.39-1.76.44-2.78.17-1.02-.27-1.79-.79-2.32-1.54-.53-.76-.67-1.59-.42-2.51.25-.92.79-1.57,1.63-1.96.84-.39,1.76-.44,2.78-.17,1.01.27,1.79.79,2.31,1.54.53.76.67,1.59.42,2.51Z"/><path class="cls-1" d="m148.49,125.41c-.63.27-1.3.31-2,.12-.7-.19-1.25-.56-1.67-1.11-.41-.55-.52-1.19-.32-1.92l4.13-15.32c.2-.73.61-1.23,1.25-1.5.63-.27,1.3-.31,2-.12.7.19,1.25.56,1.67,1.11.41.55.52,1.2.32,1.92l-4.13,15.32c-.2.73-.61,1.23-1.25,1.5Z"/><path class="cls-1" d="m169.96,124.67c-.27,1.02-.73,1.88-1.36,2.59-.64.71-1.4,1.27-2.29,1.66-.89.39-1.9.6-3.03.64s-2.33-.12-3.6-.46c-2.19-.59-3.91-1.65-5.17-3.18-1.19-1.51-1.64-3.01-1.34-4.5.15-.81.56-1.39,1.23-1.73.67-.35,1.39-.42,2.15-.21,1.55.42,2.21,1.4,1.97,2.93-.21.9.59,1.59,2.4,2.08.82.22,1.59.25,2.3.08.71-.17,1.14-.55,1.31-1.15.22-.82-.78-1.78-3.01-2.85-2.09-.97-3.57-1.9-4.46-2.79-1.41-1.33-1.88-2.89-1.4-4.66.5-1.87,1.75-3.15,3.74-3.84,1.77-.64,3.63-.71,5.56-.18,3.74,1.01,5.95,2.86,6.62,5.56.13.41.13.84.01,1.28-.19.7-.63,1.21-1.33,1.53s-1.4.39-2.1.2c-.95-.26-1.58-.94-1.9-2.04-.25-.85-1.07-1.46-2.46-1.84-1.52-.41-2.38-.27-2.57.43-.15.57.77,1.31,2.77,2.23,2.2.93,3.77,1.92,4.71,2.96,1.38,1.43,1.79,3.19,1.23,5.28Z"/><path class="cls-1" d="m177.2,101.81c-.17.63-.75,1.16-1.75,1.57-1.01.34-1.98.39-2.9.14l-5.66-1.53c-1.05-.28-1.67-.07-1.85.62-.09.35.08.58.53.7.13.03.3.01.53-.06.22-.07.46-.16.71-.27.25-.1.51-.18.78-.25.27-.06.54-.06.79,0,.22.06.43.18.62.37.19.19.37.39.55.61.18.22.36.42.53.6.17.18.35.3.54.35-.06-.02.07-.08.41-.2.49-.17.97-.2,1.45-.07.6.16,1.07.53,1.42,1.1.34.57.43,1.14.28,1.71-.13.48-.4.85-.81,1.11-1.03.54-2.13.65-3.31.33-1.14-.31-2.1-.97-2.88-2-1.16.5-2.35.59-3.59.26-.98-.27-1.79-.82-2.41-1.67-.68-1-.85-2.15-.5-3.45.34-1.27,1.15-2.25,2.43-2.94s2.82-.8,4.63-.31l4.95,1.33c.22.06.49.07.81.04.32-.03.63-.09.94-.16.31-.07.59-.13.84-.18.25-.05.46-.05.62-.01.41.11.77.41,1.06.9.29.49.39.94.27,1.35Z"/><path class="cls-1" d="m190.94,126.75c-.83,3.08-2.25,5.28-4.26,6.61-2.01,1.33-4.36,1.63-7.06.9l-1.09-.29c-2.28-.62-3.45-1.87-3.48-3.75l-.16-9.64c0-.27.02-.47.06-.6.19-.7.64-1.18,1.36-1.45s1.44-.3,2.17-.1c1.27.34,1.91,1.16,1.94,2.46l.04,8.95.62.17c.98.26,1.89-.03,2.71-.88s1.44-2.04,1.85-3.56c.38-1.43.42-2.71.1-3.85-.32-1.14-.96-1.84-1.91-2.1-.13-.03-.3-.06-.52-.06-.22,0-.45,0-.69.02-.24.02-.47.03-.67.02-.2,0-.35-.02-.45-.04-.95-.26-1.58-.72-1.89-1.4s-.32-1.39-.01-2.12c.28-.67.9-1.17,1.86-1.49.96-.32,2.1-.3,3.43.06,2.51.68,4.33,2,5.46,3.97,1.27,2.22,1.47,4.94.6,8.18Z"/><path class="cls-1" d="m210.95,141.14c-1.44.8-3.16.93-5.16.39-1.49-.4-2.62-1.27-3.38-2.6-1.33.77-2.8.93-4.42.49-2-.54-3.41-1.51-4.24-2.93-.83-1.41-.96-3.17-.39-5.26l2.64-9.8c.58-2.16,2.02-2.93,4.3-2.31l2.14.58c.83.22,1.4.63,1.74,1.23.33.6.41,1.22.24,1.85-.42,1.55-1.5,2.1-3.25,1.63l-.57-.15-2.32,8.61c-.35,1.3-.07,2.08.85,2.32.95.26,1.59-.2,1.9-1.38l1.76-6.52c.19-.7.58-1.18,1.18-1.44.6-.26,1.23-.31,1.9-.13s1.2.54,1.6,1.07c.4.53.51,1.15.32,1.85l-1.76,6.52c-.32,1.17-.01,1.89.91,2.13.95.26,1.6-.26,1.95-1.57l3.09-11.47c.19-.7.58-1.18,1.18-1.44.6-.26,1.23-.31,1.9-.12.67.18,1.2.54,1.6,1.07.4.53.51,1.15.32,1.85l-3.02,11.18c-.56,2.09-1.57,3.54-3.01,4.34Z"/><path class="cls-1" d="m219.97,119.63c-.38,1.4-1.26,1.91-2.66,1.53l-11.66-3.15c-1.4-.38-1.91-1.26-1.53-2.66.38-1.39,1.26-1.9,2.66-1.53l11.66,3.15c1.4.38,1.91,1.26,1.53,2.66Z"/><path class="cls-1" d="m236.23,139.02c-.79,2.92-2.21,5.09-4.26,6.51-2.16,1.46-4.64,1.81-7.43,1.06-2.06-.56-3.72-1.65-4.99-3.28-1.13-1.5-1.61-3-1.43-4.52.1-.86.49-1.48,1.19-1.85.7-.37,1.44-.45,2.23-.24,1.33.36,1.98,1.25,1.94,2.67-.03.5.17,1.01.61,1.52.44.51,1.01.86,1.71,1.05,2.41.65,4.1-.8,5.05-4.35.96-3.55.23-5.66-2.18-6.31-.7-.19-1.37-.17-2,.05-.64.22-1.07.55-1.29,1-.65,1.29-1.68,1.74-3.07,1.37-.79-.21-1.38-.67-1.77-1.37-.39-.7-.41-1.43-.07-2.19.62-1.4,1.79-2.46,3.51-3.19,1.91-.78,3.9-.89,5.96-.33,2.79.75,4.76,2.3,5.89,4.65,1.06,2.26,1.19,4.85.41,7.77Z"/><path class="cls-1" d="m252.94,153.43c-.63.27-1.3.31-2,.12-.7-.19-1.25-.56-1.67-1.11-.41-.55-.52-1.19-.32-1.92l1.54-5.71c.62-2.28,0-3.67-1.84-4.17-.89-.24-1.72-.19-2.49.15-.92.4-1.51,1.06-1.76,1.98l-1.64,6.09c-.2.73-.61,1.23-1.25,1.5-.63.27-1.3.31-2,.12-.7-.19-1.25-.56-1.67-1.11-.41-.55-.52-1.2-.32-1.92l4.07-15.09c.19-.7.6-1.19,1.24-1.48.64-.29,1.31-.34,2-.15.76.21,1.37.6,1.83,1.18.46.58.59,1.24.39,1.97l-.64,2.38c.87-.21,1.79-.25,2.74-.13-.06-.29-.03-.64.08-1.05.53-1.97,2.22-2.57,5.08-1.79s4.02,2.14,3.49,4.11c-.33,1.24-1.24,1.95-2.72,2.13,1.18,1.68,1.45,3.71.81,6.09l-1.71,6.33c-.2.73-.61,1.23-1.25,1.5Z"/><path class="cls-1" d="m277.08,157.14c-.23.86-.81,1.5-1.75,1.93-.93.43-1.92.5-2.97.22-1.21-.33-2.1-.99-2.68-2-1.5.52-3.08.55-4.73.1-2.12-.57-3.68-1.64-4.65-3.19-1.13-1.74-1.35-3.9-.64-6.5l2.63-9.76c.2-.73.61-1.23,1.25-1.5.63-.27,1.3-.31,2-.12.7.19,1.25.56,1.67,1.11.41.55.52,1.2.32,1.92l-2.57,9.52c-.62,2.32-.02,3.72,1.82,4.22.86.23,1.72.16,2.58-.22.87-.38,1.43-1.03,1.67-1.95l2.67-9.9c.2-.73.61-1.23,1.25-1.5.64-.27,1.3-.31,2-.12.7.19,1.25.56,1.67,1.11.41.55.52,1.2.32,1.92l-3.07,11.37c1.13.99,1.53,2.1,1.19,3.33Z"/><path class="cls-1" d="m289.26,138.32c-.38,1.4-1.26,1.91-2.66,1.53l-11.14-3c-1.01-.27-1.79-.82-2.31-1.65-.53-.82-.67-1.68-.43-2.57.25-.92.82-1.6,1.7-2.04.89-.44,1.82-.53,2.8-.26,1.75.47,2.69,1.56,2.85,3.27l7.66,2.07c1.4.38,1.91,1.26,1.53,2.66Z"/><path class="cls-1" d="m298.49,155.77c-.83,3.08-2.25,5.28-4.26,6.61-2.01,1.33-4.36,1.63-7.06.9l-1.09-.29c-2.28-.62-3.45-1.87-3.48-3.75l-.16-9.64c0-.27.02-.47.06-.6.19-.7.64-1.18,1.36-1.45s1.44-.3,2.17-.1c1.27.34,1.91,1.16,1.94,2.46l.04,8.95.62.17c.98.27,1.89-.03,2.71-.88s1.44-2.04,1.85-3.56c.38-1.43.42-2.71.09-3.85-.32-1.14-.96-1.84-1.91-2.1-.13-.03-.3-.06-.52-.06-.22,0-.45,0-.69.02-.24.02-.47.03-.67.02-.2,0-.35-.02-.45-.04-.95-.26-1.58-.72-1.89-1.4s-.31-1.39-.01-2.12c.28-.67.9-1.17,1.86-1.49.95-.32,2.1-.3,3.43.06,2.51.68,4.33,2,5.46,3.98,1.27,2.22,1.47,4.94.6,8.18Z"/></g></svg>