<?xml version="1.0" encoding="UTF-8"?><svg id="Layer_20" xmlns="http://www.w3.org/2000/svg" viewBox="0 0 477.2 241.28"><defs><style>.cls-1,.cls-2{fill:#0067ef;}.cls-3{fill:#fff79a;}.cls-2{stroke:#fff;stroke-linecap:round;stroke-linejoin:round;stroke-width:8px;}</style></defs><path class="cls-3" d="m38.2,183.81c-.96-1.52-.29-2.09.84-2.75,2.23-1.3,4.38-2.78,6.65-4.25-.51-1.11-2.75-1.38-.09-3.07l-.66-.35c-3.33.89-6.66,1.79-9.98,2.68-.11-.24-.21-.49-.32-.73,1.7-1.87,3.39-3.75,5.09-5.61,1.16-1.27,2.24-2.65,3.52-3.74,1.16-.99,2.52-1.74,3.84-2.46,3.7-2.03,7.43-3.98,11.14-6,.37-.2.64-.67,1.04-1.11-.81-.05-1.46-.1-2.37-.16,2.61-1.23,5.04-2.11,7.22-3.49,1.97-1.24,5.02-.92,6.27-4.75-2.78.75-4.92,1.44-7.09,1.84-.79.15-1.6-.48-2.44-.62-1-.17-2.04-.19-3.28-.74,2.92-1.24,5.82-2.6,8.77-3.69,2.97-1.1,6.03-1.83,8.99-2.96.64-.24,1.41-1.55,1.43-2.32.06-1.78.88-2.23,2.29-2.68,3.47-1.11,6.9-2.43,10.29-4.19-.33-.02-.67-.14-.97-.03-6.85,2.38-13.71,4.75-20.55,7.2-2.12.76-4.15,1.91-6.29,2.53-.98.28-2.09-.31-3.14-.51.6-.89,1.17-1.81,1.81-2.66.27-.36.72-.58,1.07-.85,1.61,1.57,3.6,1.13,4.74-1.23-1.15.31-2.13.57-3.46.93.67-1.62,1.3-2.7,2.69-2.25,2.6.85,3.84.03,4.25-2.89,1.54-.98,3.03-1.92,4.52-2.87-.02-.22-.03-.44-.05-.66-1.34.27-2.68.53-4.03.8-.71.14-1.47.52-2.1.38-.47-.11-.95-.81-1.04-1.37-.05-.28.7-1.01,1.17-1.19,1.19-.45,2.43-.7,3.69-1.03-.61-3.71,3-3.11,4.29-5.41-5,1.34-9.73,2.62-14.45,3.89-.05-.22-.1-.44-.15-.66,3.05-1.32,6.1-2.64,9.15-3.96-.04-.18-.09-.36-.13-.55-8.07,2-15.71,6.06-23.88,8.33,1.21-.95,2.33-2.23,3.66-2.8,7.98-3.44,15.98-6.86,24.03-10.01,6.63-2.59,13.37-4.73,20.02-7.22,4.26-1.59,8.45-3.45,12.66-5.22,5.04-2.1,10.1-4.13,15.09-6.38,4.66-2.1,9.2-4.55,13.85-6.69,5.82-2.69,11.69-5.22,17.55-7.8.42-.18.9-.43,1.29-.37,1.03.15,2.18.23,2.96.81.3.22-.28,1.73-.48,2.7,1.56-.42,3.29-.74,4.95-1.36,7.47-2.74,14.92-5.61,22.39-8.34,5.33-1.94,10.66-3.91,16.05-5.54,4.16-1.26,8.43-1.87,12.61-3.05,14.16-4.01,28.34-7.94,42.43-12.32,10.67-3.32,21.46-4.93,32.22-7.06,8.55-1.69,17.06-3.81,25.59-5.75,6.92-1.58,13.83-3.39,20.77-4.7,12.04-2.27,24.1-4.25,36.16-6.3,2.44-.42,4.89-.62,7.36-.59-6.27,2.95-12.88,3.1-19.3,4.7-6.5,1.62-13.03,3.04-19.53,5.04,7.48-1.28,14.97-2.57,22.45-3.85.02.17.03.34.05.52-3.04.6-6.1,1.12-9.13,1.82-1.34.31-2.62,1.1-3.95,1.44-7.37,1.86-14.73,3.81-22.12,5.43-8.6,1.89-17.24,3.38-25.85,5.28-2.45.54-4.81,1.91-7.2,3.23,1.92-.22,3.85-.31,5.75-.69,9.64-1.9,19.26-4.01,28.9-5.78,4.79-.88,9.63-1.13,14.44-1.78,3.58-.49,7.17-1.1,10.74-1.76,7.01-1.3,14.02-2.64,21.03-4.03,5.99-1.19,11.97-2.48,17.95-3.73.94-.2,1.89-.39,2.97-.14-.81.35-1.61.81-2.44,1.03-7.12,1.8-14.26,3.51-21.37,5.38-1.2.32-2.32,1.25-3.48,1.89l.14.59c.51-.06,1.03-.09,1.54-.2,3.43-.74,6.85-1.61,10.28-2.21,4.28-.75,8.57-1.3,12.86-1.89,1.06-.15,2.13-.14,3.77-.23-1.25,1.09-1.99,1.74-2.59,2.26,10.53-1.11,21.12-2.22,31.84-3.35-.76,3.13,1.45,2.3,2.83,2.4,3.03.22,6.08.3,9.16.99-2.93,1.12-5.87,2.24-8.8,3.36.03.24.06.47.09.71,1.29.06,2.57.11,4.39.19-1.64.98-2.78,1.67-3.92,2.36.04.18.07.36.11.54,1.39-.18,2.78-.36,4.75-.62-1.19,1.06-1.91,1.7-3.07,2.74,2.96-.26,5.39-.48,7.83-.7.06.25.11.51.17.76-2.25.93-4.51,1.86-7.03,2.9,2.83,1.99,6.06.67,8.99.84,0,.23.01.47.02.7-4.51.93-9.03,1.87-13.54,2.8.02.35.04.7.06,1.05,5.48.63,11.07-1.18,17.4-1.67-1.95,2.1-3.45,3.74-1.12,5.6-1.27.34-2.19.62-3.11.83-2.85.66-2.95.82-2.29,3.64-1.68,1.18-3.35,2.34-5.01,3.5.05.25.11.5.16.75,3.09.07,6.17.13,9.26.2,0,.26.01.51.02.77-4.14,4.41-9.96,2.01-14.42,5.35.82-.14,1.66-.43,2.46-.39,1.14.06,2.73-.69,2.96,1.44.03.3.84.39,1.26.64.66.4,1.29.86,1.93,1.3-.69.81-1.28,1.99-2.1,2.36-2.92,1.28-5.94,2.26-8.91,3.4-1,.39-1.97.91-2.96,1.37.01.28.03.57.04.85,1.72.1,3.46.14,5.17.33.7.08,1.34.5,2,.76-.53.83-.92,1.92-1.63,2.44-1.29.94-2.77,1.55-4.11,2.26.07.39.06.49.1.52.77.67,1.55,1.34,2.33,2.01-1.22,1.48-1.4,3.67-3.41,4.69-1.52.77-2.9,1.2-4.55,1.43-2.26.32-4.49,1.7-6.77,3.12,2.94.29,5.87.58,8.95.89.42,1.59-.08,2.59-2.05,2.7-2.26.13-4.53.39-6.8.65-.52.06-1.04.33-1.58,1.1,1.29.15,2.59.3,4.06.47-3.38,3.42-7.46,1.12-10.93,2.67,0,.35,0,.69,0,1.04,4.22-.2,8.43-.4,13.15-.63-4.14,3.18-7.49,6.34-12.18,7.05-3.45.52-6.83,2.29-10.28,3.25-2.23.61-4.52.76-6.79,1.11-4.53.7-9.07,1.26-13.59,2.12-15.27,2.91-30.55,5.82-45.8,8.96-4.87,1-9.67,2.85-14.53,4.01-3.2.76-6.47.84-9.7,1.46-5.32,1.02-10.65,2.05-15.93,3.41-10.97,2.84-21.9,5.9-32.85,8.87-1.83.5-3.54,1-4.35,3.38-.25.73-1.52,1.4-2.39,1.64-4.32,1.22-8.71,2.06-13,3.46-8.6,2.82-17.13,5.95-25.71,8.88-4.66,1.59-9.35,3.04-14.03,4.56-.75.25-1.5.52-2.85.99,1.06.29,1.51.41,2.11.58-.26.23-.4.43-.56.49-6.99,2.49-14,4.91-20.98,7.45-5.19,1.89-10.75,3.11-15.43,6.1-5.24,3.36-10.86,4.67-16.2,7.26-3.72,1.81-5.52.52-5.88-3.67-.05-.58-.68-1.04-1.08-1.61,1.54-2.98,4.46-4.02,7.15-5.48,1.89-1.02,3.69-2.24,5.52-3.4.3-.19.73-.53.77-.82.28-1.98,1.74-2.23,3.08-2.78,1.58-.64,3.11-1.43,4.67-2.15-.05-.2-.09-.39-.14-.59-.68.14-1.37.24-2.04.42-3.69,1.04-7.36,2.25-11.08,3.11-3.38.79-6.89.76-10.18,1.88-7.29,2.47-14.56,5.15-21.68,8.29-5.53,2.43-11.12,5.15-16.12,8.74-3.18,2.28-6.71,2.71-9.79,4.78-.57.38-1.45.09-2.16.29-2.21.65-4.43,1.3-6.6,2.14-.54.21-.9,1.11-1.62,2.06,2.47-.97,4.36-1.72,6.26-2.47.06.38.12.75.18,1.13-7,2.79-14.12,3.75-21.76,3.52.94-.85,1.54-1.4,2.48-2.25-11.64-.38-22.2,5.27-33.14,8.05,2.05-3.69,6.08-3.07,8.77-5.88,0-.65.01-1.63.02-2.93-1.78.21-3.48.4-5.18.6-.07-.24-.15-.47-.22-.71,1.59-.88,3.12-1.93,4.77-2.59,2.89-1.16,5.24-2.8,6.2-6.77-2.34.63-4.67,1.2-6.98,1.9-1.39.42-2.83,1.5-3.53-.8-.16-.52-1.11-.69-1.78-1.73,3.44-1.34,6.88-2.68,10.61-4.13-.66-.55-1.15-.96-1.89-1.57.85-.97,1.68-1.93,2.58-2.97-1.31-1.63-2.64-.68-3.98.06-2.05,1.12-4.12,2.2-6.17,3.3l-.32-.82c1.79-.96,3.59-1.92,5.5-2.94-3.63-1.86-6.51,2.08-9.97,2.05.04-.35.09-.82.13-1.23-1.94-.55-3.88-1.09-6.26-1.76.54-.62.89-1.31,1.38-1.54,3.18-1.51,6.39-2.93,9.59-4.35,1.95-.86,3.91-1.67,6.16-2.63Zm43.37-53.32c-.18-.47-.36-.93-.54-1.4-3.35,1.95-6.71,3.9-10.06,5.85.11.28.22.56.33.84,3.43-1.76,6.85-3.52,10.28-5.28Zm217.99-91.97c-.33-.04-.66-.17-.98-.12-2.8.47-5.61.91-8.4,1.48-8.82,1.81-17.64,3.63-26.44,5.55-7.43,1.62-14.88,3.23-22.27,5.17-6.05,1.59-12.04,3.66-18.05,5.57-.52.17-.97.74-1.45,1.13.1.33.19.65.29.98,25.79-6.36,51.57-12.71,77.36-19.07-.01-.23-.02-.47-.04-.7Zm-95.86,26.53c.87-2.56-.96-1.78-1.83-1.49-7.01,2.29-14.01,4.67-21,7.1-4.21,1.46-8.42,2.94-12.55,4.67-1.91.8-3.67,2.19-5.45,3.4-.25.17-.19.91-.37,1.88,14.05-6.23,27.9-11.4,42.67-14.18-.82-.75-1.54-1.18-1.47-1.38Zm14.78-5.83c.25-.05.65-.54.66-.81,0-.28-.32-.69-.59-.76-1.47-.4-4.88,1.66-5.94,4.1,1.45-.97,2.36-1.58,3.41-2.28.79-.07,1.64-.08,2.47-.25Zm155.99-25.24c.02.2.03.4.05.6,3.51.02,6.89-1.42,10.28-2.83-3.44.74-6.89,1.48-10.33,2.23Zm-64.72,2.39c-2.61.7-5.21,1.4-7.82,2.1.03.2.05.4.08.6,2.62-.7,5.23-1.41,7.85-2.11-.04-.2-.07-.39-.11-.59ZM66,219.43c-1.58.22-3.17.44-4.75.66,1.6,1.61,3.2.41,4.79.03-.01-.23-.03-.46-.04-.7Z"/><g><path class="cls-2" d="m80.63,151.05c-.51.69-1.21,1.16-2.07,1.39-.87.24-1.71.19-2.5-.15-.79-.34-1.31-.96-1.56-1.87l-3.22-11.82c-.79-2.89-2.33-4.02-4.62-3.4-.51.14-1,.4-1.45.78-.45.38-.82.82-1.11,1.32-.29.5-.49,1.06-.6,1.66-.11.61-.08,1.2.08,1.8l3.2,11.76c.25.91.11,1.71-.4,2.4-.51.69-1.21,1.16-2.08,1.39-.87.24-1.7.19-2.5-.15-.79-.34-1.31-.96-1.56-1.87l-5.15-18.94c-.24-.87-.09-1.67.43-2.38.53-.72,1.27-1.21,2.22-1.46,2.26-.61,3.64,0,4.14,1.87.72-2.03,2.39-3.39,5-4.1,5.5-1.5,9.12.92,10.84,7.25l3.3,12.11c.25.91.12,1.71-.4,2.41Z"/><path class="cls-2" d="m99.55,145.93c-.49.71-1.17,1.18-2.04,1.42-.87.24-1.72.18-2.54-.17-.82-.35-1.36-1-1.62-1.95l-3.49-12.83c-.5-1.82-1.62-2.5-3.36-2.02-.75.21-1.24.42-1.48.66-.63.51-1.22.84-1.77.99-.87.24-1.68.14-2.44-.29-.76-.43-1.25-1.08-1.49-1.95-.31-1.15.08-2.23,1.19-3.26,1.1-1.02,2.54-1.78,4.33-2.26,2.73-.74,5.15-.56,7.26.54,2.11,1.11,3.52,2.96,4.23,5.58l3.56,13.06c.26.95.14,1.78-.35,2.49Z"/><path class="cls-2" d="m125.35,138.88c-.51.69-1.21,1.16-2.08,1.39-.87.24-1.7.19-2.5-.15-.79-.34-1.31-.96-1.56-1.87l-3.52-12.94c-.28-1.03-.85-1.77-1.72-2.21-.87-.44-1.89-.51-3.08-.18s-2.04.9-2.56,1.72c-.52.82-.64,1.75-.36,2.78l.11.42,3.62-.99c1.03-.28,1.91-.21,2.64.21.73.42,1.2,1.02,1.42,1.81.22.79.12,1.56-.29,2.31-.41.75-1.13,1.26-2.16,1.54l-3.62.99,1.81,6.65c.25.91.11,1.71-.4,2.41-.51.69-1.21,1.16-2.08,1.39-.87.24-1.7.19-2.5-.15-.79-.34-1.31-.96-1.56-1.87l-3.41-12.53c-.39-1.42-.48-2.78-.28-4.07.2-1.29.65-2.46,1.34-3.52.69-1.06,1.61-1.98,2.76-2.76,1.15-.78,2.49-1.38,4.04-1.8,1.54-.42,3.01-.58,4.39-.49s2.64.42,3.78.98c1.13.56,2.11,1.35,2.94,2.36.83,1.01,1.44,2.22,1.82,3.65l3.41,12.53c.25.91.12,1.71-.4,2.4Z"/><path class="cls-2" d="m148.65,124.57c.35,1.27.4,2.49.17,3.65-.23,1.17-.71,2.25-1.42,3.22-.71.98-1.67,1.85-2.87,2.6s-2.59,1.34-4.17,1.77c-2.73.74-5.26.69-7.57-.17-2.24-.88-3.66-2.21-4.28-4-.35-.97-.27-1.85.24-2.65s1.23-1.33,2.18-1.58c1.94-.53,3.26.11,3.97,1.92.34,1.1,1.64,1.34,3.9.73,1.03-.28,1.87-.73,2.53-1.36.66-.63.89-1.31.68-2.07-.28-1.03-1.96-1.42-5.04-1.18-2.86.27-5.04.2-6.56-.19-2.36-.55-3.84-1.93-4.45-4.15-.64-2.33-.1-4.5,1.61-6.5,1.5-1.81,3.46-3.05,5.88-3.71,4.67-1.27,8.21-.66,10.64,1.83.39.36.67.82.82,1.37.24.87.08,1.7-.47,2.49-.55.79-1.26,1.3-2.13,1.54-1.19.32-2.3-.01-3.34-1.01-.8-.76-2.07-.9-3.82-.43-1.9.52-2.73,1.21-2.49,2.08.19.71,1.66.93,4.39.66,2.96-.38,5.27-.31,6.95.21,2.39.67,3.94,2.31,4.65,4.92Z"/><path class="cls-2" d="m140.82,106.35l-13.89,3.78c-1.74.47-2.85-.16-3.32-1.9-.47-1.74.16-2.85,1.9-3.32l10.63-2.89-.1-.36c-.21-.79-.06-1.5.47-2.14.53-.63,1.23-1.07,2.1-1.3.87-.24,1.7-.22,2.47.06s1.27.81,1.49,1.6l.82,3.03c.46,1.7-.39,2.85-2.57,3.44Z"/><path class="cls-2" d="m174.81,123.89c-1.29,1.97-3.24,3.31-5.86,4.02-1.98.54-3.93.49-5.84-.13-.72,1.26-1.83,2.09-3.34,2.5-1.31.36-2.54.27-3.71-.27-1.17-.53-1.89-1.33-2.19-2.4-.42-1.54.07-2.93,1.48-4.17l-3.86-14.19c-.25-.91-.12-1.71.4-2.4.51-.69,1.21-1.16,2.08-1.39.87-.24,1.7-.19,2.5.15.79.34,1.31.96,1.56,1.87l3.36,12.35c.3,1.11,1.04,1.93,2.2,2.46,1.05.44,2.1.51,3.13.23,2.29-.62,3.05-2.38,2.26-5.27l-3.23-11.88c-.25-.91-.12-1.71.4-2.4.51-.69,1.21-1.16,2.08-1.39.87-.24,1.7-.19,2.49.15.79.34,1.31.96,1.56,1.87l3.31,12.17c.88,3.25.62,5.95-.79,8.12Z"/><path class="cls-2" d="m202.86,117.75c-.49.71-1.19,1.18-2.1,1.43-.91.25-1.76.19-2.53-.17-.78-.36-1.29-1-1.54-1.91l-3.33-12.23c-.33-1.23-.99-2.11-1.97-2.65s-2.04-.66-3.19-.34c-1.94.53-3,1.41-3.17,2.65,0,.3.32.64.98,1.01.65.38,1.02.7,1.09.98.05.2-.09.68-.43,1.46-.3.76-.38,1.42-.23,1.97l2.52,9.26c.25.91.13,1.72-.36,2.43-.49.71-1.19,1.18-2.1,1.43-.91.25-1.76.19-2.54-.17-.78-.36-1.29-1-1.54-1.91l-2.6-9.56c-.15-.55-.04-1.16.33-1.81.23-.4.37-.67.42-.82.05-.14.1-.24.17-.3l-.3-.17c-.1-.06-.21-.12-.34-.19-.12-.07-.31-.16-.55-.26-.76-.43-1.15-.88-1.19-1.33-.09-1.12.04-2.22.41-3.3.37-1.08.92-2.06,1.66-2.94.74-.88,1.64-1.66,2.71-2.33,1.07-.67,2.26-1.19,3.57-1.54,3.17-.86,5.9-.73,8.2.38,2.48,1.15,4.16,3.35,5.05,6.6l3.25,11.94c.25.91.13,1.72-.36,2.43Z"/><path class="cls-2" d="m205.67,85.9c.47,1.74-.16,2.85-1.9,3.32l-13.89,3.78c-1.27.34-2.44.24-3.53-.31-1.09-.55-1.78-1.39-2.08-2.5-.31-1.15-.13-2.24.54-3.27.68-1.03,1.63-1.72,2.85-2.05,2.18-.59,3.89-.02,5.13,1.73l9.56-2.6c1.74-.47,2.85.16,3.33,1.9Z"/><path class="cls-2" d="m232.68,106.16c.29,1.07.07,2.13-.67,3.18-.73,1.05-1.76,1.75-3.06,2.11-1.5.41-2.89.25-4.14-.47-1.29,1.5-2.97,2.53-5.03,3.09-2.65.72-4.99.55-7.03-.51-2.31-1.16-3.91-3.36-4.79-6.6l-3.31-12.17c-.25-.91-.12-1.71.4-2.4.51-.69,1.21-1.16,2.08-1.39.87-.24,1.7-.19,2.5.15s1.31.96,1.56,1.87l3.23,11.88c.79,2.89,2.33,4.02,4.62,3.4,1.07-.29,1.95-.91,2.65-1.87.7-.95.89-2,.58-3.15l-3.36-12.35c-.25-.91-.12-1.71.4-2.41.51-.69,1.2-1.16,2.08-1.39.87-.24,1.7-.19,2.5.15.79.34,1.31.96,1.56,1.87l3.86,14.19c1.84.35,2.97,1.3,3.39,2.84Z"/><path class="cls-2" d="m243.32,106.96c-.51.69-1.21,1.16-2.08,1.39-.87.24-1.7.19-2.5-.15-.79-.34-1.31-.96-1.56-1.87l-5.2-19.12c-.25-.91-.12-1.71.4-2.4s1.21-1.16,2.08-1.4c.87-.24,1.7-.19,2.5.15.79.34,1.31.96,1.56,1.87l5.2,19.12c.25.91.12,1.71-.4,2.4Zm10.69-2.91c-.51.69-1.21,1.16-2.08,1.39-.87.24-1.7.19-2.5-.15-.79-.34-1.31-.96-1.56-1.87l-5.2-19.12c-.25-.91-.12-1.71.4-2.4s1.2-1.16,2.08-1.39c.87-.24,1.7-.19,2.5.15s1.31.96,1.56,1.87l5.2,19.12c.25.91.12,1.71-.4,2.4Z"/><path class="cls-2" d="m279.76,96.73c-.51.69-1.21,1.16-2.08,1.39-.87.24-1.7.19-2.5-.15-.79-.34-1.31-.96-1.56-1.87l-3.49-12.83c-.28-1.03-.85-1.77-1.72-2.21-.87-.44-1.89-.51-3.08-.18s-2.04.9-2.56,1.72c-.52.82-.64,1.75-.36,2.78l2.59,9.5c2.18-.59,3.53.08,4.06,2.02.23.83.13,1.62-.28,2.37s-1.13,1.27-2.16,1.54l-2.49.68c-2.69.73-4.38-.17-5.07-2.7l-3.05-11.22c-.39-1.43-.48-2.78-.28-4.07.2-1.29.65-2.46,1.34-3.52.69-1.06,1.61-1.98,2.76-2.76,1.15-.78,2.49-1.38,4.04-1.8,1.54-.42,3.01-.58,4.39-.49,1.38.09,2.64.42,3.78.98,1.13.56,2.11,1.35,2.94,2.36.83,1.01,1.44,2.22,1.82,3.65l3.38,12.41c.25.91.11,1.71-.4,2.4Z"/><path class="cls-2" d="m305.59,89.7c-.51.69-1.21,1.16-2.08,1.39-.87.24-1.7.19-2.5-.15-.79-.34-1.31-.96-1.56-1.87l-3.49-12.83c-.28-1.03-.85-1.77-1.72-2.21-.87-.44-1.89-.5-3.08-.18-1.19.32-2.04.9-2.56,1.72s-.64,1.75-.36,2.78l2.59,9.5c2.18-.59,3.53.08,4.06,2.02.23.83.13,1.62-.28,2.37-.41.75-1.13,1.27-2.16,1.55l-2.49.68c-2.69.73-4.38-.17-5.07-2.7l-3.05-11.22c-.39-1.42-.48-2.78-.28-4.07.2-1.29.65-2.46,1.34-3.52.69-1.06,1.61-1.98,2.76-2.76,1.15-.78,2.49-1.38,4.04-1.8,1.54-.42,3.01-.58,4.39-.49,1.38.09,2.64.42,3.78.98,1.13.56,2.11,1.35,2.94,2.36.83,1.01,1.44,2.22,1.82,3.65l3.38,12.41c.25.91.11,1.71-.4,2.41Z"/><path class="cls-2" d="m331.45,82.79c-.51.69-1.21,1.16-2.08,1.39-.87.24-1.7.19-2.49-.15-.79-.34-1.31-.96-1.56-1.87l-3.22-11.82c-.79-2.89-2.33-4.02-4.62-3.4-.51.14-1,.4-1.45.78-.45.38-.82.82-1.11,1.32-.29.5-.49,1.06-.6,1.66-.11.6-.08,1.2.08,1.8l3.2,11.76c.25.91.11,1.71-.4,2.41-.51.69-1.21,1.16-2.08,1.39-.87.24-1.7.19-2.5-.15-.79-.34-1.31-.96-1.56-1.87l-5.15-18.94c-.24-.87-.09-1.67.43-2.38.53-.72,1.27-1.21,2.22-1.46,2.26-.61,3.64,0,4.14,1.87.72-2.02,2.39-3.39,5-4.1,5.5-1.5,9.12.92,10.84,7.25l3.3,12.11c.25.91.12,1.71-.4,2.4Z"/><path class="cls-2" d="m333.74,94.35c-2.18.59-3.51,0-3.99-1.78l-.4-1.48c-2.01.42-3.24-.2-3.7-1.86-.48-1.78.36-2.97,2.54-3.56l2.97-.81c2.18-.59,3.51,0,3.99,1.78l1.13,4.16c.48,1.78-.36,2.97-2.54,3.56Z"/><path class="cls-2" d="m358.79,75.32c-.49.71-1.19,1.18-2.1,1.43s-1.76.19-2.54-.17c-.78-.36-1.29-1-1.54-1.91l-3.33-12.23c-.33-1.23-.99-2.11-1.97-2.65s-2.04-.66-3.19-.34c-1.94.53-3,1.41-3.17,2.65,0,.3.32.64.98,1.01.65.38,1.02.7,1.09.98.05.2-.09.68-.43,1.46-.3.76-.38,1.42-.23,1.97l2.52,9.26c.25.91.13,1.72-.36,2.43s-1.19,1.18-2.1,1.43c-.91.25-1.76.19-2.54-.17-.78-.36-1.29-1-1.54-1.91l-2.6-9.56c-.15-.55-.04-1.16.33-1.81.23-.4.37-.67.42-.82.05-.14.1-.24.17-.3l-.3-.17c-.1-.06-.21-.12-.34-.19-.13-.07-.31-.16-.55-.26-.76-.43-1.15-.88-1.19-1.33-.09-1.12.04-2.22.41-3.3.37-1.08.92-2.06,1.66-2.94.74-.88,1.64-1.66,2.71-2.33,1.07-.67,2.26-1.19,3.57-1.54,3.17-.86,5.9-.73,8.2.38,2.48,1.15,4.17,3.35,5.05,6.6l3.25,11.94c.25.91.13,1.72-.36,2.43Z"/><path class="cls-2" d="m381.61,56.76c.99,3.64.83,6.88-.49,9.7-1.41,2.94-3.86,4.88-7.34,5.83-2.57.7-5.05.57-7.44-.4-2.16-.9-3.62-2.22-4.4-3.97-.44-.99-.4-1.9.12-2.74.51-.84,1.27-1.4,2.26-1.67,1.66-.45,2.92.1,3.77,1.65.28.56.82.98,1.62,1.25.8.27,1.63.29,2.5.05,3.01-.82,3.91-3.45,2.7-7.88-1.21-4.43-3.31-6.24-6.32-5.42-.87.24-1.58.68-2.13,1.31-.55.64-.8,1.27-.76,1.9.11,1.8-.71,2.94-2.45,3.41-.99.27-1.92.15-2.78-.36s-1.35-1.28-1.46-2.31c-.22-1.9.38-3.78,1.78-5.65,1.57-2.04,3.64-3.42,6.21-4.12,3.48-.95,6.58-.51,9.28,1.3,2.56,1.77,4.34,4.47,5.33,8.12Z"/><path class="cls-2" d="m385.71,36.9c.47,1.74-.16,2.85-1.9,3.32l-13.89,3.78c-1.27.34-2.44.24-3.53-.31s-1.78-1.39-2.08-2.5c-.31-1.15-.13-2.24.54-3.27.67-1.03,1.62-1.72,2.85-2.05,2.18-.59,3.88-.01,5.12,1.73l9.56-2.6c1.74-.47,2.85.16,3.32,1.9Z"/><path class="cls-2" d="m412.72,57.16c.29,1.07.07,2.13-.67,3.18-.73,1.05-1.76,1.75-3.06,2.11-1.5.41-2.88.25-4.14-.47-1.29,1.5-2.97,2.53-5.03,3.09-2.65.72-4.99.55-7.03-.51-2.31-1.16-3.91-3.36-4.79-6.6l-3.31-12.17c-.25-.91-.12-1.71.4-2.4.51-.69,1.21-1.16,2.08-1.39.87-.24,1.71-.19,2.5.15.79.34,1.31.96,1.56,1.87l3.23,11.88c.79,2.89,2.33,4.02,4.62,3.4,1.07-.29,1.95-.91,2.65-1.87.7-.95.89-2.01.58-3.15l-3.36-12.35c-.25-.91-.12-1.71.4-2.4.51-.69,1.21-1.16,2.08-1.39.87-.24,1.7-.19,2.5.15.79.34,1.31.96,1.56,1.87l3.86,14.19c1.84.35,2.97,1.3,3.39,2.84Z"/><path class="cls-2" d="m143.18,174.29c.92,3.37.56,6.27-1.07,8.71-1.4,2.04-3.57,3.46-6.49,4.25l-5.52,1.5c-1.19.32-2.23.3-3.12-.08-.89-.37-1.46-1.04-1.72-1.99l-4.01-14.73c-1.84.29-2.98-.42-3.45-2.12-.23-.83-.13-1.62.28-2.37.41-.75,1.13-1.26,2.16-1.54l2.73-.74c2.14-.58,3.47.12,4.01,2.1l4.15,15.26,2.08-.57c3.01-.82,4.1-2.73,3.29-5.74-.42-1.54-1.27-2.55-2.54-3.01-.48-.21-1.45-.26-2.91-.16-1.39.04-2.28-.63-2.65-2.02-.2-.58-.2-1.09,0-1.53.2-.44.48-.83.83-1.18.35-.35.73-.66,1.15-.92.42-.26.79-.52,1.1-.78.33-.35.73-1.07,1.19-2.17.45-1.01.78-1.68.99-1.99.52-.74,1.18-1.21,1.97-1.43.87-.24,1.72-.16,2.55.23s1.36,1,1.58,1.83.12,1.71-.3,2.63c-.37.82-1.01,1.83-1.92,3.01,3.01.92,4.9,2.77,5.65,5.54Z"/><path class="cls-2" d="m138.17,157.28c-.48.73-1.18,1.21-2.09,1.46-.91.25-1.76.18-2.54-.2-.78-.38-1.32-1.09-1.6-2.12l-1-3.68c-.28-1.03-.18-1.91.3-2.63.48-.73,1.18-1.21,2.09-1.46s1.76-.18,2.54.2c.79.38,1.32,1.09,1.6,2.12l1,3.68c.28,1.03.18,1.91-.3,2.63Z"/><path class="cls-2" d="m168.3,165.6c.99,3.64.83,6.88-.48,9.7-1.41,2.94-3.86,4.88-7.35,5.83-2.57.7-5.05.57-7.44-.4-2.16-.9-3.62-2.22-4.4-3.97-.44-.99-.4-1.9.11-2.74.51-.84,1.27-1.4,2.26-1.67,1.66-.45,2.92.1,3.77,1.65.28.56.82.98,1.62,1.25.8.27,1.63.29,2.5.05,3.01-.82,3.91-3.44,2.71-7.88-1.21-4.43-3.32-6.24-6.32-5.42-.87.24-1.58.68-2.13,1.31-.55.64-.8,1.27-.76,1.9.11,1.8-.71,2.94-2.45,3.41-.99.27-1.92.15-2.78-.36s-1.35-1.28-1.46-2.31c-.22-1.9.38-3.78,1.78-5.65,1.57-2.04,3.64-3.42,6.21-4.12,3.48-.95,6.58-.51,9.28,1.3,2.56,1.77,4.34,4.47,5.33,8.12Z"/><path class="cls-2" d="m193.78,166.19c-.2,1.29-.65,2.46-1.34,3.52-.69,1.06-1.61,1.98-2.76,2.76-1.15.78-2.49,1.38-4.04,1.8-3.05.83-5.84.65-8.37-.53-2.48-1.15-4.01-3.16-4.57-6.03-.36-1.77.06-3.44,1.26-5-2-.94-3.28-2.43-3.82-4.44-.22-.79-.27-1.57-.16-2.35.11-.77.36-1.51.74-2.21.38-.7.91-1.31,1.57-1.83.67-.52,1.47-.91,2.43-1.17,1.19-.32,2.24-.28,3.16.13.92.41,1.5,1.05,1.73,1.92.62,2.26-.23,3.53-2.53,3.82-.09.28-.12.57-.09.85.39.83,1.06,1.09,2,.79l1.11-.37c2.14-.71,3.5-.02,4.07,2.08.23.83.1,1.62-.38,2.37-.48.75-1.24,1.24-2.28,1.48-.64.13-1.19.46-1.64.99-.45.53-.61,1.13-.46,1.82.21.92.77,1.6,1.67,2.03.9.44,1.93.5,3.08.18,1.19-.32,2.04-.89,2.56-1.72.52-.82.64-1.75.36-2.78l-3.51-12.89c-.25-.91-.12-1.71.4-2.4.52-.69,1.21-1.16,2.08-1.39.87-.24,1.7-.19,2.5.15s1.31.96,1.56,1.87l3.39,12.47c.39,1.42.48,2.78.28,4.07Z"/><path class="cls-2" d="m220.33,163.78c-.51.71-1.2,1.19-2.07,1.42-.87.24-1.71.18-2.5-.18-.8-.36-1.33-1.01-1.59-1.96l-1.99-7.3c-.26.16-.78.41-1.57.78-.79.37-1.88.82-3.26,1.37-1.92.78-2.71,1.78-2.37,3.01.3,1.11.86,1.42,1.66.95.4-.24.76-.4,1.08-.49.87-.24,1.66-.13,2.38.31.71.44,1.19,1.1,1.43,1.97.41,1.5-.16,2.7-1.7,3.59-.55.32-1.22.59-2.01.8-1.98.54-3.86.43-5.63-.32-2.04-.93-3.39-2.61-4.04-5.02-1.19-4.35.83-7.71,6.06-10.07.65-.26,1.28-.52,1.89-.77.61-.25,1.22-.5,1.84-.75,1.58-.77,2.27-1.51,2.07-2.22-.13-.48-.56-.78-1.3-.92-.74-.14-1.55-.09-2.42.15-1.82.5-2.82,1.28-3,2.35-.23,1.64-1.14,2.67-2.73,3.1-.47.13-.91.16-1.31.1-1.44-.12-2.33-.81-2.67-2.08-.56-2.06.21-4.05,2.32-5.99,1.81-1.64,3.78-2.75,5.92-3.33,1.42-.39,2.8-.56,4.13-.52,1.33.04,2.54.3,3.62.77,1.09.47,2.01,1.14,2.78,2.02.77.88,1.33,1.95,1.67,3.21l3.69,13.54c.26.95.13,1.78-.37,2.49Z"/><path class="cls-2" d="m246.14,156.66c-.51.69-1.21,1.16-2.08,1.39-.87.24-1.7.19-2.5-.15-.79-.34-1.31-.96-1.56-1.87l-3.49-12.83c-.28-1.03-.85-1.77-1.72-2.21-.87-.44-1.89-.51-3.08-.18-1.19.32-2.04.9-2.56,1.72-.52.82-.64,1.75-.36,2.78l2.59,9.5c2.18-.59,3.53.08,4.06,2.02.23.83.13,1.62-.28,2.37s-1.13,1.26-2.16,1.54l-2.49.68c-2.69.73-4.38-.17-5.07-2.7l-3.05-11.22c-.39-1.42-.48-2.78-.28-4.07.2-1.29.65-2.46,1.34-3.52.69-1.06,1.61-1.98,2.76-2.76,1.15-.78,2.49-1.38,4.04-1.8,1.54-.42,3.01-.58,4.39-.49,1.38.09,2.64.42,3.78.98,1.13.56,2.11,1.35,2.94,2.36.83,1.01,1.43,2.22,1.82,3.65l3.38,12.41c.25.91.12,1.71-.4,2.4Z"/><path class="cls-2" d="m269.47,142.47c.35,1.27.4,2.48.17,3.65-.23,1.17-.71,2.25-1.42,3.22-.71.98-1.67,1.85-2.87,2.6s-2.59,1.34-4.17,1.77c-2.73.74-5.26.69-7.57-.17-2.24-.88-3.66-2.21-4.28-4-.35-.97-.27-1.85.23-2.65.51-.8,1.24-1.32,2.19-1.58,1.94-.53,3.26.11,3.96,1.92.34,1.1,1.64,1.34,3.9.73,1.03-.28,1.87-.73,2.53-1.36.66-.63.89-1.31.68-2.07-.28-1.03-1.96-1.42-5.04-1.18-2.86.27-5.04.21-6.56-.19-2.36-.55-3.84-1.93-4.45-4.15-.64-2.33-.1-4.5,1.61-6.5,1.51-1.81,3.46-3.05,5.88-3.7,4.67-1.27,8.22-.66,10.64,1.82.39.36.67.82.82,1.37.24.87.08,1.7-.47,2.49-.55.79-1.26,1.3-2.13,1.54-1.19.32-2.3-.01-3.33-1-.8-.76-2.08-.9-3.82-.43-1.9.52-2.73,1.21-2.5,2.08.2.71,1.66.93,4.39.66,2.96-.38,5.27-.31,6.95.21,2.39.67,3.95,2.31,4.66,4.92Z"/><path class="cls-2" d="m264.2,120.75c.47,1.74-.16,2.85-1.9,3.32l-14.55,3.96c-1.74.47-2.85-.16-3.32-1.9-.47-1.74.16-2.85,1.9-3.32l14.55-3.96c1.74-.47,2.85.16,3.32,1.9Z"/><path class="cls-2" d="m267.71,109.97c.44,1.62-.19,2.67-1.89,3.13l-7.07,1.92c-1.66.45-2.71-.13-3.16-1.76l-.21-.77-.47.13c-1.7.46-2.77-.12-3.22-1.74-.44-1.62.19-2.67,1.89-3.13l3.03-.82c1.94-.53,3.14.06,3.6,1.76l.18.65,4.1-1.12c1.7-.46,2.78.12,3.22,1.74Z"/><path class="cls-2" d="m295.43,131c.99,3.64.83,6.88-.49,9.7-1.41,2.94-3.86,4.88-7.34,5.83-2.57.7-5.05.57-7.44-.4-2.16-.9-3.62-2.22-4.4-3.97-.44-.99-.4-1.9.12-2.74.51-.84,1.27-1.4,2.26-1.67,1.66-.45,2.92.1,3.77,1.65.28.56.82.98,1.62,1.25.8.27,1.63.29,2.5.05,3.01-.82,3.91-3.45,2.71-7.88-1.21-4.43-3.32-6.24-6.32-5.42-.87.24-1.58.68-2.13,1.31-.55.64-.8,1.27-.76,1.9.11,1.8-.71,2.94-2.45,3.41-.99.27-1.92.15-2.78-.36-.86-.51-1.35-1.28-1.46-2.31-.22-1.9.38-3.78,1.78-5.65,1.57-2.04,3.64-3.41,6.21-4.12,3.48-.95,6.58-.51,9.28,1.3,2.56,1.77,4.34,4.47,5.33,8.12Z"/><path class="cls-2" d="m320,128.71c.35,1.27.4,2.49.17,3.65-.23,1.17-.71,2.25-1.42,3.22-.71.98-1.67,1.85-2.86,2.6-1.2.75-2.59,1.34-4.17,1.77-2.73.74-5.26.69-7.57-.17-2.24-.88-3.66-2.21-4.28-4-.35-.97-.27-1.85.24-2.65s1.24-1.33,2.19-1.58c1.94-.53,3.26.11,3.96,1.92.34,1.1,1.64,1.34,3.9.73,1.03-.28,1.87-.73,2.53-1.36s.89-1.31.68-2.07c-.28-1.03-1.96-1.42-5.04-1.18-2.86.27-5.05.2-6.56-.19-2.36-.55-3.84-1.93-4.45-4.15-.63-2.33-.1-4.5,1.61-6.5,1.51-1.81,3.46-3.05,5.88-3.71,4.67-1.27,8.22-.66,10.64,1.83.4.36.67.82.82,1.37.24.87.08,1.7-.47,2.49-.55.79-1.26,1.3-2.13,1.54-1.19.32-2.3-.01-3.34-1.01-.8-.76-2.07-.9-3.81-.43-1.9.52-2.73,1.21-2.5,2.08.2.71,1.66.93,4.39.66,2.96-.38,5.27-.31,6.95.21,2.39.67,3.95,2.31,4.66,4.92Z"/><path class="cls-2" d="m346.09,117.21c.98,3.6.66,6.9-.95,9.89-1.62,2.95-4.25,4.92-7.89,5.91-3.01.82-6.01.57-9-.74-3.14-1.4-5.13-3.6-5.95-6.61-.36-1.31-.23-2.44.38-3.39.61-.95,1.55-1.6,2.82-1.95l5.05-1.37c.99-.27,1.84-.18,2.56.26.71.44,1.19,1.08,1.41,1.91s.14,1.62-.25,2.36c-.39.74-1.08,1.25-2.07,1.52l-1.96.53c1.64,1.64,3.44,2.19,5.42,1.65,1.7-.46,2.88-1.53,3.53-3.19.57-1.51.61-3.16.12-4.94-.25-.91-.61-1.73-1.08-2.45-.47-.72-1.03-1.32-1.67-1.81-.64-.48-1.35-.81-2.12-.99s-1.57-.15-2.4.08c-.99.27-1.84.75-2.54,1.46-.7.7-1.11,1.32-1.21,1.86-.28,1.31-1.19,2.17-2.74,2.59-2.22.6-3.58-.02-4.08-1.89-.57-2.1.35-4.2,2.75-6.3,2.06-1.79,4.18-2.99,6.36-3.58,3.52-.96,6.74-.56,9.64,1.2,2.93,1.71,4.89,4.37,5.87,7.97Z"/><path class="cls-2" d="m371.57,117.81c-.2,1.29-.65,2.46-1.34,3.52-.69,1.06-1.61,1.98-2.76,2.76s-2.49,1.38-4.04,1.8c-3.05.83-5.84.65-8.37-.53-2.48-1.15-4.01-3.16-4.57-6.03-.35-1.77.06-3.44,1.26-5-2-.94-3.28-2.42-3.82-4.44-.22-.79-.27-1.57-.16-2.35.11-.77.35-1.51.74-2.21.38-.7.91-1.31,1.57-1.83s1.48-.91,2.43-1.17c1.19-.32,2.24-.28,3.16.13.92.41,1.5,1.05,1.73,1.92.61,2.26-.23,3.53-2.53,3.81-.1.28-.12.57-.09.85.4.83,1.06,1.09,2,.79l1.11-.37c2.14-.71,3.5-.02,4.07,2.08.23.83.1,1.62-.38,2.37-.48.75-1.24,1.24-2.28,1.48-.64.13-1.19.46-1.64.99-.45.53-.61,1.13-.46,1.82.21.92.76,1.6,1.67,2.03.9.43,1.93.5,3.08.18,1.19-.32,2.04-.9,2.56-1.72.52-.82.64-1.75.36-2.78l-3.51-12.89c-.25-.91-.12-1.71.4-2.4s1.21-1.16,2.08-1.4c.87-.24,1.7-.19,2.5.15.79.34,1.31.96,1.56,1.87l3.39,12.47c.39,1.42.48,2.78.28,4.07Z"/></g><g><path class="cls-1" d="m80.63,151.05c-.51.69-1.21,1.16-2.07,1.39-.87.24-1.71.19-2.5-.15-.79-.34-1.31-.96-1.56-1.87l-3.22-11.82c-.79-2.89-2.33-4.02-4.62-3.4-.51.14-1,.4-1.45.78-.45.38-.82.82-1.11,1.32-.29.5-.49,1.06-.6,1.66-.11.61-.08,1.2.08,1.8l3.2,11.76c.25.91.11,1.71-.4,2.4-.51.69-1.21,1.16-2.08,1.39-.87.24-1.7.19-2.5-.15-.79-.34-1.31-.96-1.56-1.87l-5.15-18.94c-.24-.87-.09-1.67.43-2.38.53-.72,1.27-1.21,2.22-1.46,2.26-.61,3.64,0,4.14,1.87.72-2.03,2.39-3.39,5-4.1,5.5-1.5,9.12.92,10.84,7.25l3.3,12.11c.25.91.12,1.71-.4,2.41Z"/><path class="cls-1" d="m99.55,145.93c-.49.71-1.17,1.18-2.04,1.42-.87.24-1.72.18-2.54-.17-.82-.35-1.36-1-1.62-1.95l-3.49-12.83c-.5-1.82-1.62-2.5-3.36-2.02-.75.21-1.24.42-1.48.66-.63.51-1.22.84-1.77.99-.87.24-1.68.14-2.44-.29-.76-.43-1.25-1.08-1.49-1.95-.31-1.15.08-2.23,1.19-3.26,1.1-1.02,2.54-1.78,4.33-2.26,2.73-.74,5.15-.56,7.26.54,2.11,1.11,3.52,2.96,4.23,5.58l3.56,13.06c.26.95.14,1.78-.35,2.49Z"/><path class="cls-1" d="m125.35,138.88c-.51.69-1.21,1.16-2.08,1.39-.87.24-1.7.19-2.5-.15-.79-.34-1.31-.96-1.56-1.87l-3.52-12.94c-.28-1.03-.85-1.77-1.72-2.21-.87-.44-1.89-.51-3.08-.18s-2.04.9-2.56,1.72c-.52.82-.64,1.75-.36,2.78l.11.42,3.62-.99c1.03-.28,1.91-.21,2.64.21.73.42,1.2,1.02,1.42,1.81.22.79.12,1.56-.29,2.31-.41.75-1.13,1.26-2.16,1.54l-3.62.99,1.81,6.65c.25.91.11,1.71-.4,2.41-.51.69-1.21,1.16-2.08,1.39-.87.24-1.7.19-2.5-.15-.79-.34-1.31-.96-1.56-1.87l-3.41-12.53c-.39-1.42-.48-2.78-.28-4.07.2-1.29.65-2.46,1.34-3.52.69-1.06,1.61-1.98,2.76-2.76,1.15-.78,2.49-1.38,4.04-1.8,1.54-.42,3.01-.58,4.39-.49s2.64.42,3.78.98c1.13.56,2.11,1.35,2.94,2.36.83,1.01,1.44,2.22,1.82,3.65l3.41,12.53c.25.91.12,1.71-.4,2.4Z"/><path class="cls-1" d="m148.65,124.57c.35,1.27.4,2.49.17,3.65-.23,1.17-.71,2.25-1.42,3.22-.71.98-1.67,1.85-2.87,2.6s-2.59,1.34-4.17,1.77c-2.73.74-5.26.69-7.57-.17-2.24-.88-3.66-2.21-4.28-4-.35-.97-.27-1.85.24-2.65s1.23-1.33,2.18-1.58c1.94-.53,3.26.11,3.97,1.92.34,1.1,1.64,1.34,3.9.73,1.03-.28,1.87-.73,2.53-1.36.66-.63.89-1.31.68-2.07-.28-1.03-1.96-1.42-5.04-1.18-2.86.27-5.04.2-6.56-.19-2.36-.55-3.84-1.93-4.45-4.15-.64-2.33-.1-4.5,1.61-6.5,1.5-1.81,3.46-3.05,5.88-3.71,4.67-1.27,8.21-.66,10.64,1.83.39.36.67.82.82,1.37.24.87.08,1.7-.47,2.49-.55.79-1.26,1.3-2.13,1.54-1.19.32-2.3-.01-3.34-1.01-.8-.76-2.07-.9-3.82-.43-1.9.52-2.73,1.21-2.49,2.08.19.71,1.66.93,4.39.66,2.96-.38,5.27-.31,6.95.21,2.39.67,3.94,2.31,4.65,4.92Z"/><path class="cls-1" d="m140.82,106.35l-13.89,3.78c-1.74.47-2.85-.16-3.32-1.9-.47-1.74.16-2.85,1.9-3.32l10.63-2.89-.1-.36c-.21-.79-.06-1.5.47-2.14.53-.63,1.23-1.07,2.1-1.3.87-.24,1.7-.22,2.47.06s1.27.81,1.49,1.6l.82,3.03c.46,1.7-.39,2.85-2.57,3.44Z"/><path class="cls-1" d="m174.81,123.89c-1.29,1.97-3.24,3.31-5.86,4.02-1.98.54-3.93.49-5.84-.13-.72,1.26-1.83,2.09-3.34,2.5-1.31.36-2.54.27-3.71-.27-1.17-.53-1.89-1.33-2.19-2.4-.42-1.54.07-2.93,1.48-4.17l-3.86-14.19c-.25-.91-.12-1.71.4-2.4.51-.69,1.21-1.16,2.08-1.39.87-.24,1.7-.19,2.5.15.79.34,1.31.96,1.56,1.87l3.36,12.35c.3,1.11,1.04,1.93,2.2,2.46,1.05.44,2.1.51,3.13.23,2.29-.62,3.05-2.38,2.26-5.27l-3.23-11.88c-.25-.91-.12-1.71.4-2.4.51-.69,1.21-1.16,2.08-1.39.87-.24,1.7-.19,2.49.15.79.34,1.31.96,1.56,1.87l3.31,12.17c.88,3.25.62,5.95-.79,8.12Z"/><path class="cls-1" d="m202.86,117.75c-.49.71-1.19,1.18-2.1,1.43-.91.25-1.76.19-2.53-.17-.78-.36-1.29-1-1.54-1.91l-3.33-12.23c-.33-1.23-.99-2.11-1.97-2.65s-2.04-.66-3.19-.34c-1.94.53-3,1.41-3.17,2.65,0,.3.32.64.98,1.01.65.38,1.02.7,1.09.98.05.2-.09.68-.43,1.46-.3.76-.38,1.42-.23,1.97l2.52,9.26c.25.91.13,1.72-.36,2.43-.49.71-1.19,1.18-2.1,1.43-.91.25-1.76.19-2.54-.17-.78-.36-1.29-1-1.54-1.91l-2.6-9.56c-.15-.55-.04-1.16.33-1.81.23-.4.37-.67.42-.82.05-.14.1-.24.17-.3l-.3-.17c-.1-.06-.21-.12-.34-.19-.12-.07-.31-.16-.55-.26-.76-.43-1.15-.88-1.19-1.33-.09-1.12.04-2.22.41-3.3.37-1.08.92-2.06,1.66-2.94.74-.88,1.64-1.66,2.71-2.33,1.07-.67,2.26-1.19,3.57-1.54,3.17-.86,5.9-.73,8.2.38,2.48,1.15,4.16,3.35,5.05,6.6l3.25,11.94c.25.91.13,1.72-.36,2.43Z"/><path class="cls-1" d="m205.67,85.9c.47,1.74-.16,2.85-1.9,3.32l-13.89,3.78c-1.27.34-2.44.24-3.53-.31-1.09-.55-1.78-1.39-2.08-2.5-.31-1.15-.13-2.24.54-3.27.68-1.03,1.63-1.72,2.85-2.05,2.18-.59,3.89-.02,5.13,1.73l9.56-2.6c1.74-.47,2.85.16,3.33,1.9Z"/><path class="cls-1" d="m232.68,106.16c.29,1.07.07,2.13-.67,3.18-.73,1.05-1.76,1.75-3.06,2.11-1.5.41-2.89.25-4.14-.47-1.29,1.5-2.97,2.53-5.03,3.09-2.65.72-4.99.55-7.03-.51-2.31-1.16-3.91-3.36-4.79-6.6l-3.31-12.17c-.25-.91-.12-1.71.4-2.4.51-.69,1.21-1.16,2.08-1.39.87-.24,1.7-.19,2.5.15s1.31.96,1.56,1.87l3.23,11.88c.79,2.89,2.33,4.02,4.62,3.4,1.07-.29,1.95-.91,2.65-1.87.7-.95.89-2,.58-3.15l-3.36-12.35c-.25-.91-.12-1.71.4-2.41.51-.69,1.2-1.16,2.08-1.39.87-.24,1.7-.19,2.5.15.79.34,1.31.96,1.56,1.87l3.86,14.19c1.84.35,2.97,1.3,3.39,2.84Z"/><path class="cls-1" d="m243.32,106.96c-.51.69-1.21,1.16-2.08,1.39-.87.24-1.7.19-2.5-.15-.79-.34-1.31-.96-1.56-1.87l-5.2-19.12c-.25-.91-.12-1.71.4-2.4s1.21-1.16,2.08-1.4c.87-.24,1.7-.19,2.5.15.79.34,1.31.96,1.56,1.87l5.2,19.12c.25.91.12,1.71-.4,2.4Zm10.69-2.91c-.51.69-1.21,1.16-2.08,1.39-.87.24-1.7.19-2.5-.15-.79-.34-1.31-.96-1.56-1.87l-5.2-19.12c-.25-.91-.12-1.71.4-2.4s1.2-1.16,2.08-1.39c.87-.24,1.7-.19,2.5.15s1.31.96,1.56,1.87l5.2,19.12c.25.91.12,1.71-.4,2.4Z"/><path class="cls-1" d="m279.76,96.73c-.51.69-1.21,1.16-2.08,1.39-.87.24-1.7.19-2.5-.15-.79-.34-1.31-.96-1.56-1.87l-3.49-12.83c-.28-1.03-.85-1.77-1.72-2.21-.87-.44-1.89-.51-3.08-.18s-2.04.9-2.56,1.72c-.52.82-.64,1.75-.36,2.78l2.59,9.5c2.18-.59,3.53.08,4.06,2.02.23.83.13,1.62-.28,2.37s-1.13,1.27-2.16,1.54l-2.49.68c-2.69.73-4.38-.17-5.07-2.7l-3.05-11.22c-.39-1.43-.48-2.78-.28-4.07.2-1.29.65-2.46,1.34-3.52.69-1.06,1.61-1.98,2.76-2.76,1.15-.78,2.49-1.38,4.04-1.8,1.54-.42,3.01-.58,4.39-.49,1.38.09,2.64.42,3.78.98,1.13.56,2.11,1.35,2.94,2.36.83,1.01,1.44,2.22,1.82,3.65l3.38,12.41c.25.91.11,1.71-.4,2.4Z"/><path class="cls-1" d="m305.59,89.7c-.51.69-1.21,1.16-2.08,1.39-.87.24-1.7.19-2.5-.15-.79-.34-1.31-.96-1.56-1.87l-3.49-12.83c-.28-1.03-.85-1.77-1.72-2.21-.87-.44-1.89-.5-3.08-.18-1.19.32-2.04.9-2.56,1.72s-.64,1.75-.36,2.78l2.59,9.5c2.18-.59,3.53.08,4.06,2.02.23.83.13,1.62-.28,2.37-.41.75-1.13,1.27-2.16,1.55l-2.49.68c-2.69.73-4.38-.17-5.07-2.7l-3.05-11.22c-.39-1.42-.48-2.78-.28-4.07.2-1.29.65-2.46,1.34-3.52.69-1.06,1.61-1.98,2.76-2.76,1.15-.78,2.49-1.38,4.04-1.8,1.54-.42,3.01-.58,4.39-.49,1.38.09,2.64.42,3.78.98,1.13.56,2.11,1.35,2.94,2.36.83,1.01,1.44,2.22,1.82,3.65l3.38,12.41c.25.91.11,1.71-.4,2.41Z"/><path class="cls-1" d="m331.45,82.79c-.51.69-1.21,1.16-2.08,1.39-.87.24-1.7.19-2.49-.15-.79-.34-1.31-.96-1.56-1.87l-3.22-11.82c-.79-2.89-2.33-4.02-4.62-3.4-.51.14-1,.4-1.45.78-.45.38-.82.82-1.11,1.32-.29.5-.49,1.06-.6,1.66-.11.6-.08,1.2.08,1.8l3.2,11.76c.25.91.11,1.71-.4,2.41-.51.69-1.21,1.16-2.08,1.39-.87.24-1.7.19-2.5-.15-.79-.34-1.31-.96-1.56-1.87l-5.15-18.94c-.24-.87-.09-1.67.43-2.38.53-.72,1.27-1.21,2.22-1.46,2.26-.61,3.64,0,4.14,1.87.72-2.02,2.39-3.39,5-4.1,5.5-1.5,9.12.92,10.84,7.25l3.3,12.11c.25.91.12,1.71-.4,2.4Z"/><path class="cls-1" d="m333.74,94.35c-2.18.59-3.51,0-3.99-1.78l-.4-1.48c-2.01.42-3.24-.2-3.7-1.86-.48-1.78.36-2.97,2.54-3.56l2.97-.81c2.18-.59,3.51,0,3.99,1.78l1.13,4.16c.48,1.78-.36,2.97-2.54,3.56Z"/><path class="cls-1" d="m358.79,75.32c-.49.71-1.19,1.18-2.1,1.43s-1.76.19-2.54-.17c-.78-.36-1.29-1-1.54-1.91l-3.33-12.23c-.33-1.23-.99-2.11-1.97-2.65s-2.04-.66-3.19-.34c-1.94.53-3,1.41-3.17,2.65,0,.3.32.64.98,1.01.65.38,1.02.7,1.09.98.05.2-.09.68-.43,1.46-.3.76-.38,1.42-.23,1.97l2.52,9.26c.25.91.13,1.72-.36,2.43s-1.19,1.18-2.1,1.43c-.91.25-1.76.19-2.54-.17-.78-.36-1.29-1-1.54-1.91l-2.6-9.56c-.15-.55-.04-1.16.33-1.81.23-.4.37-.67.42-.82.05-.14.1-.24.17-.3l-.3-.17c-.1-.06-.21-.12-.34-.19-.13-.07-.31-.16-.55-.26-.76-.43-1.15-.88-1.19-1.33-.09-1.12.04-2.22.41-3.3.37-1.08.92-2.06,1.66-2.94.74-.88,1.64-1.66,2.71-2.33,1.07-.67,2.26-1.19,3.57-1.54,3.17-.86,5.9-.73,8.2.38,2.48,1.15,4.17,3.35,5.05,6.6l3.25,11.94c.25.91.13,1.72-.36,2.43Z"/><path class="cls-1" d="m381.61,56.76c.99,3.64.83,6.88-.49,9.7-1.41,2.94-3.86,4.88-7.34,5.83-2.57.7-5.05.57-7.44-.4-2.16-.9-3.62-2.22-4.4-3.97-.44-.99-.4-1.9.12-2.74.51-.84,1.27-1.4,2.26-1.67,1.66-.45,2.92.1,3.77,1.65.28.56.82.98,1.62,1.25.8.27,1.63.29,2.5.05,3.01-.82,3.91-3.45,2.7-7.88-1.21-4.43-3.31-6.24-6.32-5.42-.87.24-1.58.68-2.13,1.31-.55.64-.8,1.27-.76,1.9.11,1.8-.71,2.94-2.45,3.41-.99.27-1.92.15-2.78-.36s-1.35-1.28-1.46-2.31c-.22-1.9.38-3.78,1.78-5.65,1.57-2.04,3.64-3.42,6.21-4.12,3.48-.95,6.58-.51,9.28,1.3,2.56,1.77,4.34,4.47,5.33,8.12Z"/><path class="cls-1" d="m385.71,36.9c.47,1.74-.16,2.85-1.9,3.32l-13.89,3.78c-1.27.34-2.44.24-3.53-.31s-1.78-1.39-2.08-2.5c-.31-1.15-.13-2.24.54-3.27.67-1.03,1.62-1.72,2.85-2.05,2.18-.59,3.88-.01,5.12,1.73l9.56-2.6c1.74-.47,2.85.16,3.32,1.9Z"/><path class="cls-1" d="m412.72,57.16c.29,1.07.07,2.13-.67,3.18-.73,1.05-1.76,1.75-3.06,2.11-1.5.41-2.88.25-4.14-.47-1.29,1.5-2.97,2.53-5.03,3.09-2.65.72-4.99.55-7.03-.51-2.31-1.16-3.91-3.36-4.79-6.6l-3.31-12.17c-.25-.91-.12-1.71.4-2.4.51-.69,1.21-1.16,2.08-1.39.87-.24,1.71-.19,2.5.15.79.34,1.31.96,1.56,1.87l3.23,11.88c.79,2.89,2.33,4.02,4.62,3.4,1.07-.29,1.95-.91,2.65-1.87.7-.95.89-2.01.58-3.15l-3.36-12.35c-.25-.91-.12-1.71.4-2.4.51-.69,1.21-1.16,2.08-1.39.87-.24,1.7-.19,2.5.15.79.34,1.31.96,1.56,1.87l3.86,14.19c1.84.35,2.97,1.3,3.39,2.84Z"/><path class="cls-1" d="m143.18,174.29c.92,3.37.56,6.27-1.07,8.71-1.4,2.04-3.57,3.46-6.49,4.25l-5.52,1.5c-1.19.32-2.23.3-3.12-.08-.89-.37-1.46-1.04-1.72-1.99l-4.01-14.73c-1.84.29-2.98-.42-3.45-2.12-.23-.83-.13-1.62.28-2.37.41-.75,1.13-1.26,2.16-1.54l2.73-.74c2.14-.58,3.47.12,4.01,2.1l4.15,15.26,2.08-.57c3.01-.82,4.1-2.73,3.29-5.74-.42-1.54-1.27-2.55-2.54-3.01-.48-.21-1.45-.26-2.91-.16-1.39.04-2.28-.63-2.65-2.02-.2-.58-.2-1.09,0-1.53.2-.44.48-.83.83-1.18.35-.35.73-.66,1.15-.92.42-.26.79-.52,1.1-.78.33-.35.73-1.07,1.19-2.17.45-1.01.78-1.68.99-1.99.52-.74,1.18-1.21,1.97-1.43.87-.24,1.72-.16,2.55.23s1.36,1,1.58,1.83.12,1.71-.3,2.63c-.37.82-1.01,1.83-1.92,3.01,3.01.92,4.9,2.77,5.65,5.54Z"/><path class="cls-1" d="m138.17,157.28c-.48.73-1.18,1.21-2.09,1.46-.91.25-1.76.18-2.54-.2-.78-.38-1.32-1.09-1.6-2.12l-1-3.68c-.28-1.03-.18-1.91.3-2.63.48-.73,1.18-1.21,2.09-1.46s1.76-.18,2.54.2c.79.38,1.32,1.09,1.6,2.12l1,3.68c.28,1.03.18,1.91-.3,2.63Z"/><path class="cls-1" d="m168.3,165.6c.99,3.64.83,6.88-.48,9.7-1.41,2.94-3.86,4.88-7.35,5.83-2.57.7-5.05.57-7.44-.4-2.16-.9-3.62-2.22-4.4-3.97-.44-.99-.4-1.9.11-2.74.51-.84,1.27-1.4,2.26-1.67,1.66-.45,2.92.1,3.77,1.65.28.56.82.98,1.62,1.25.8.27,1.63.29,2.5.05,3.01-.82,3.91-3.44,2.71-7.88-1.21-4.43-3.32-6.24-6.32-5.42-.87.24-1.58.68-2.13,1.31-.55.64-.8,1.27-.76,1.9.11,1.8-.71,2.94-2.45,3.41-.99.27-1.92.15-2.78-.36s-1.35-1.28-1.46-2.31c-.22-1.9.38-3.78,1.78-5.65,1.57-2.04,3.64-3.42,6.21-4.12,3.48-.95,6.58-.51,9.28,1.3,2.56,1.77,4.34,4.47,5.33,8.12Z"/><path class="cls-1" d="m193.78,166.19c-.2,1.29-.65,2.46-1.34,3.52-.69,1.06-1.61,1.98-2.76,2.76-1.15.78-2.49,1.38-4.04,1.8-3.05.83-5.84.65-8.37-.53-2.48-1.15-4.01-3.16-4.57-6.03-.36-1.77.06-3.44,1.26-5-2-.94-3.28-2.43-3.82-4.44-.22-.79-.27-1.57-.16-2.35.11-.77.36-1.51.74-2.21.38-.7.91-1.31,1.57-1.83.67-.52,1.47-.91,2.43-1.17,1.19-.32,2.24-.28,3.16.13.92.41,1.5,1.05,1.73,1.92.62,2.26-.23,3.53-2.53,3.82-.09.28-.12.57-.09.85.39.83,1.06,1.09,2,.79l1.11-.37c2.14-.71,3.5-.02,4.07,2.08.23.83.1,1.62-.38,2.37-.48.75-1.24,1.24-2.28,1.48-.64.13-1.19.46-1.64.99-.45.53-.61,1.13-.46,1.82.21.92.77,1.6,1.67,2.03.9.44,1.93.5,3.08.18,1.19-.32,2.04-.89,2.56-1.72.52-.82.64-1.75.36-2.78l-3.51-12.89c-.25-.91-.12-1.71.4-2.4.52-.69,1.21-1.16,2.08-1.39.87-.24,1.7-.19,2.5.15s1.31.96,1.56,1.87l3.39,12.47c.39,1.42.48,2.78.28,4.07Z"/><path class="cls-1" d="m220.33,163.78c-.51.71-1.2,1.19-2.07,1.42-.87.24-1.71.18-2.5-.18-.8-.36-1.33-1.01-1.59-1.96l-1.99-7.3c-.26.16-.78.41-1.57.78-.79.37-1.88.82-3.26,1.37-1.92.78-2.71,1.78-2.37,3.01.3,1.11.86,1.42,1.66.95.4-.24.76-.4,1.08-.49.87-.24,1.66-.13,2.38.31.71.44,1.19,1.1,1.43,1.97.41,1.5-.16,2.7-1.7,3.59-.55.32-1.22.59-2.01.8-1.98.54-3.86.43-5.63-.32-2.04-.93-3.39-2.61-4.04-5.02-1.19-4.35.83-7.71,6.06-10.07.65-.26,1.28-.52,1.89-.77.61-.25,1.22-.5,1.84-.75,1.58-.77,2.27-1.51,2.07-2.22-.13-.48-.56-.78-1.3-.92-.74-.14-1.55-.09-2.42.15-1.82.5-2.82,1.28-3,2.35-.23,1.64-1.14,2.67-2.73,3.1-.47.13-.91.16-1.31.1-1.44-.12-2.33-.81-2.67-2.08-.56-2.06.21-4.05,2.32-5.99,1.81-1.64,3.78-2.75,5.92-3.33,1.42-.39,2.8-.56,4.13-.52,1.33.04,2.54.3,3.62.77,1.09.47,2.01,1.14,2.78,2.02.77.88,1.33,1.95,1.67,3.21l3.69,13.54c.26.95.13,1.78-.37,2.49Z"/><path class="cls-1" d="m246.14,156.66c-.51.69-1.21,1.16-2.08,1.39-.87.24-1.7.19-2.5-.15-.79-.34-1.31-.96-1.56-1.87l-3.49-12.83c-.28-1.03-.85-1.77-1.72-2.21-.87-.44-1.89-.51-3.08-.18-1.19.32-2.04.9-2.56,1.72-.52.82-.64,1.75-.36,2.78l2.59,9.5c2.18-.59,3.53.08,4.06,2.02.23.83.13,1.62-.28,2.37s-1.13,1.26-2.16,1.54l-2.49.68c-2.69.73-4.38-.17-5.07-2.7l-3.05-11.22c-.39-1.42-.48-2.78-.28-4.07.2-1.29.65-2.46,1.34-3.52.69-1.06,1.61-1.98,2.76-2.76,1.15-.78,2.49-1.38,4.04-1.8,1.54-.42,3.01-.58,4.39-.49,1.38.09,2.64.42,3.78.98,1.13.56,2.11,1.35,2.94,2.36.83,1.01,1.43,2.22,1.82,3.65l3.38,12.41c.25.91.12,1.71-.4,2.4Z"/><path class="cls-1" d="m269.47,142.47c.35,1.27.4,2.48.17,3.65-.23,1.17-.71,2.25-1.42,3.22-.71.98-1.67,1.85-2.87,2.6s-2.59,1.34-4.17,1.77c-2.73.74-5.26.69-7.57-.17-2.24-.88-3.66-2.21-4.28-4-.35-.97-.27-1.85.23-2.65.51-.8,1.24-1.32,2.19-1.58,1.94-.53,3.26.11,3.96,1.92.34,1.1,1.64,1.34,3.9.73,1.03-.28,1.87-.73,2.53-1.36.66-.63.89-1.31.68-2.07-.28-1.03-1.96-1.42-5.04-1.18-2.86.27-5.04.21-6.56-.19-2.36-.55-3.84-1.93-4.45-4.15-.64-2.33-.1-4.5,1.61-6.5,1.51-1.81,3.46-3.05,5.88-3.7,4.67-1.27,8.22-.66,10.64,1.82.39.36.67.82.82,1.37.24.87.08,1.7-.47,2.49-.55.79-1.26,1.3-2.13,1.54-1.19.32-2.3-.01-3.33-1-.8-.76-2.08-.9-3.82-.43-1.9.52-2.73,1.21-2.5,2.08.2.71,1.66.93,4.39.66,2.96-.38,5.27-.31,6.95.21,2.39.67,3.95,2.31,4.66,4.92Z"/><path class="cls-1" d="m264.2,120.75c.47,1.74-.16,2.85-1.9,3.32l-14.55,3.96c-1.74.47-2.85-.16-3.32-1.9-.47-1.74.16-2.85,1.9-3.32l14.55-3.96c1.74-.47,2.85.16,3.32,1.9Z"/><path class="cls-1" d="m267.71,109.97c.44,1.62-.19,2.67-1.89,3.13l-7.07,1.92c-1.66.45-2.71-.13-3.16-1.76l-.21-.77-.47.13c-1.7.46-2.77-.12-3.22-1.74-.44-1.62.19-2.67,1.89-3.13l3.03-.82c1.94-.53,3.14.06,3.6,1.76l.18.65,4.1-1.12c1.7-.46,2.78.12,3.22,1.74Z"/><path class="cls-1" d="m295.43,131c.99,3.64.83,6.88-.49,9.7-1.41,2.94-3.86,4.88-7.34,5.83-2.57.7-5.05.57-7.44-.4-2.16-.9-3.62-2.22-4.4-3.97-.44-.99-.4-1.9.12-2.74.51-.84,1.27-1.4,2.26-1.67,1.66-.45,2.92.1,3.77,1.65.28.56.82.98,1.62,1.25.8.27,1.63.29,2.5.05,3.01-.82,3.91-3.45,2.71-7.88-1.21-4.43-3.32-6.24-6.32-5.42-.87.24-1.58.68-2.13,1.31-.55.64-.8,1.27-.76,1.9.11,1.8-.71,2.94-2.45,3.41-.99.27-1.92.15-2.78-.36-.86-.51-1.35-1.28-1.46-2.31-.22-1.9.38-3.78,1.78-5.65,1.57-2.04,3.64-3.41,6.21-4.12,3.48-.95,6.58-.51,9.28,1.3,2.56,1.77,4.34,4.47,5.33,8.12Z"/><path class="cls-1" d="m320,128.71c.35,1.27.4,2.49.17,3.65-.23,1.17-.71,2.25-1.42,3.22-.71.98-1.67,1.85-2.86,2.6-1.2.75-2.59,1.34-4.17,1.77-2.73.74-5.26.69-7.57-.17-2.24-.88-3.66-2.21-4.28-4-.35-.97-.27-1.85.24-2.65s1.24-1.33,2.19-1.58c1.94-.53,3.26.11,3.96,1.92.34,1.1,1.64,1.34,3.9.73,1.03-.28,1.87-.73,2.53-1.36s.89-1.31.68-2.07c-.28-1.03-1.96-1.42-5.04-1.18-2.86.27-5.05.2-6.56-.19-2.36-.55-3.84-1.93-4.45-4.15-.63-2.33-.1-4.5,1.61-6.5,1.51-1.81,3.46-3.05,5.88-3.71,4.67-1.27,8.22-.66,10.64,1.83.4.36.67.82.82,1.37.24.87.08,1.7-.47,2.49-.55.79-1.26,1.3-2.13,1.54-1.19.32-2.3-.01-3.34-1.01-.8-.76-2.07-.9-3.81-.43-1.9.52-2.73,1.21-2.5,2.08.2.71,1.66.93,4.39.66,2.96-.38,5.27-.31,6.95.21,2.39.67,3.95,2.31,4.66,4.92Z"/><path class="cls-1" d="m346.09,117.21c.98,3.6.66,6.9-.95,9.89-1.62,2.95-4.25,4.92-7.89,5.91-3.01.82-6.01.57-9-.74-3.14-1.4-5.13-3.6-5.95-6.61-.36-1.31-.23-2.44.38-3.39.61-.95,1.55-1.6,2.82-1.95l5.05-1.37c.99-.27,1.84-.18,2.56.26.71.44,1.19,1.08,1.41,1.91s.14,1.62-.25,2.36c-.39.74-1.08,1.25-2.07,1.52l-1.96.53c1.64,1.64,3.44,2.19,5.42,1.65,1.7-.46,2.88-1.53,3.53-3.19.57-1.51.61-3.16.12-4.94-.25-.91-.61-1.73-1.08-2.45-.47-.72-1.03-1.32-1.67-1.81-.64-.48-1.35-.81-2.12-.99s-1.57-.15-2.4.08c-.99.27-1.84.75-2.54,1.46-.7.7-1.11,1.32-1.21,1.86-.28,1.31-1.19,2.17-2.74,2.59-2.22.6-3.58-.02-4.08-1.89-.57-2.1.35-4.2,2.75-6.3,2.06-1.79,4.18-2.99,6.36-3.58,3.52-.96,6.74-.56,9.64,1.2,2.93,1.71,4.89,4.37,5.87,7.97Z"/><path class="cls-1" d="m371.57,117.81c-.2,1.29-.65,2.46-1.34,3.52-.69,1.06-1.61,1.98-2.76,2.76s-2.49,1.38-4.04,1.8c-3.05.83-5.84.65-8.37-.53-2.48-1.15-4.01-3.16-4.57-6.03-.35-1.77.06-3.44,1.26-5-2-.94-3.28-2.42-3.82-4.44-.22-.79-.27-1.57-.16-2.35.11-.77.35-1.51.74-2.21.38-.7.91-1.31,1.57-1.83s1.48-.91,2.43-1.17c1.19-.32,2.24-.28,3.16.13.92.41,1.5,1.05,1.73,1.92.61,2.26-.23,3.53-2.53,3.81-.1.28-.12.57-.09.85.4.83,1.06,1.09,2,.79l1.11-.37c2.14-.71,3.5-.02,4.07,2.08.23.83.1,1.62-.38,2.37-.48.75-1.24,1.24-2.28,1.48-.64.13-1.19.46-1.64.99-.45.53-.61,1.13-.46,1.82.21.92.76,1.6,1.67,2.03.9.43,1.93.5,3.08.18,1.19-.32,2.04-.9,2.56-1.72.52-.82.64-1.75.36-2.78l-3.51-12.89c-.25-.91-.12-1.71.4-2.4s1.21-1.16,2.08-1.4c.87-.24,1.7-.19,2.5.15.79.34,1.31.96,1.56,1.87l3.39,12.47c.39,1.42.48,2.78.28,4.07Z"/></g></svg>