<svg width="41" height="40" viewBox="0 0 41 40" fill="none" xmlns="http://www.w3.org/2000/svg">
<path d="M20.5 0C9.46 0 0.5 8.96 0.5 20C0.5 31.04 9.46 40 20.5 40C31.54 40 40.5 31.04 40.5 20C40.5 8.96 31.54 0 20.5 0ZM28.56 21.06L22.56 27.06C22.26 27.36 21.88 27.5 21.5 27.5C21.12 27.5 20.74 27.36 20.44 27.06C20.161 26.7777 20.0046 26.3969 20.0046 26C20.0046 25.6031 20.161 25.2223 20.44 24.94L23.88 21.5H13.5C12.68 21.5 12 20.82 12 20C12 19.18 12.68 18.5 13.5 18.5H23.88L20.44 15.06C20.161 14.7777 20.0046 14.3969 20.0046 14C20.0046 13.6031 20.161 13.2223 20.44 12.94C21.02 12.36 21.98 12.36 22.56 12.94L28.56 18.94C29.14 19.52 29.14 20.48 28.56 21.06Z" fill="white"/>
</svg>
