<svg width="1440" height="1440" viewBox="0 0 1440 1440" fill="none"
    xmlns="http://www.w3.org/2000/svg">
    <path fill-rule="evenodd" clip-rule="evenodd"
        d="M1440 48C1440 21.4903 1418.51 0 1392 0H48C21.4903 0 0 21.4904 0 48V1392C0 1418.51 21.4903 1440 48 1440H172C198.51 1440 220 1418.51 220 1392V1386.09C220 1278.26 342 1215.99 460.333 1166.49C578.278 1117.22 616.056 1075.65 616.056 986.743C616.056 962.521 608.63 952.877 599.043 940.428C587.506 925.445 572.84 906.399 564.222 852.982C561.655 837.081 555.201 833.537 547.935 829.547C536.649 823.35 523.406 816.077 519.722 759.764C519.722 753.448 520.232 747.945 521.078 743.162C524.661 722.888 534.901 700.053 532.072 679.661C529.48 660.973 526.51 637.51 524.778 617.053C522 582.71 545.863 516.237 593.611 477.415C629.341 448.365 657.791 436.155 704.36 434.223C737.385 432.853 756.918 437.756 787.389 450.189C864.525 481.662 918.778 573.059 915.167 617.107C913.463 637.547 910.51 660.987 907.927 679.666C905.103 700.083 915.384 722.94 918.977 743.235C919.823 748.014 920.333 753.511 920.333 759.818C916.582 816.132 903.332 823.404 892.04 829.601C884.77 833.591 878.312 837.135 875.722 853.036C867.077 906.435 852.437 925.486 840.925 940.467C831.353 952.923 823.944 962.565 823.944 986.797C823.944 1075.76 861.611 1117.27 979.556 1166.55C1097.94 1215.99 1220 1278.26 1220 1386.09V1392C1220 1418.51 1241.49 1440 1268 1440H1392C1418.51 1440 1440 1418.51 1440 1392V48Z"
        fill="black" fill-opacity="0.7" />
</svg>
    